<svg width="22" height="17" viewBox="0 0 22 17" fill="none" xmlns="http://www.w3.org/2000/svg">
<path d="M8 13.3333H14C14.2833 13.3333 14.521 13.2173 14.713 12.9853C14.9043 12.7541 15 12.4673 15 12.125V7.29163C15 6.94926 14.9043 6.66208 14.713 6.43008C14.521 6.19889 14.2833 6.08329 14 6.08329H13V4.87496C13 4.5326 12.9043 4.24542 12.713 4.01342C12.521 3.78222 12.2833 3.66663 12 3.66663H10C9.71667 3.66663 9.47933 3.78222 9.288 4.01342C9.096 4.24542 9 4.5326 9 4.87496V6.08329H8C7.71667 6.08329 7.47933 6.19889 7.288 6.43008C7.096 6.66208 7 6.94926 7 7.29163V12.125C7 12.4673 7.096 12.7541 7.288 12.9853C7.47933 13.2173 7.71667 13.3333 8 13.3333ZM10 6.08329V4.87496H12V6.08329H10ZM7 16.9583C5.05 16.9583 3.396 16.1374 2.038 14.4957C0.679333 12.8548 0 10.8562 0 8.49996C0 6.14371 0.679333 4.14472 2.038 2.503C3.396 0.862084 5.05 0.041626 7 0.041626H15C16.95 0.041626 18.604 0.862084 19.962 2.503C21.3207 4.14472 22 6.14371 22 8.49996C22 10.8562 21.3207 12.8548 19.962 14.4957C18.604 16.1374 16.95 16.9583 15 16.9583H7Z" fill="white"/>
</svg>
