<svg width="19" height="17" viewBox="0 0 19 17" fill="none" xmlns="http://www.w3.org/2000/svg">
<path d="M10.375 12H8.625C8.14375 12 7.75 11.6062 7.75 11.125H1.63375V14.625C1.63375 15.5875 2.42125 16.375 3.38375 16.375H15.625C16.5875 16.375 17.375 15.5875 17.375 14.625V11.125H11.25C11.25 11.6062 10.8562 12 10.375 12ZM16.5 4.125H13C13 2.19125 11.4338 0.625 9.5 0.625C7.56625 0.625 6 2.19125 6 4.125H2.5C1.5375 4.125 0.75 4.9125 0.75 5.875V8.5C0.75 9.47125 1.52875 10.25 2.5 10.25H7.75V9.375C7.75 8.89375 8.14375 8.5 8.625 8.5H10.375C10.8562 8.5 11.25 8.89375 11.25 9.375V10.25H16.5C17.4625 10.25 18.25 9.4625 18.25 8.5V5.875C18.25 4.9125 17.4625 4.125 16.5 4.125ZM7.75 4.125C7.75 3.1625 8.5375 2.375 9.5 2.375C10.4625 2.375 11.25 3.1625 11.25 4.125H7.74125H7.75Z" fill="white"/>
</svg>
