<svg width="19" height="21" viewBox="0 0 19 21" fill="none" xmlns="http://www.w3.org/2000/svg">
<path d="M12.3778 12.8423C12.2494 12.8003 11.4377 12.4344 11.9449 10.8925H11.9376C13.2598 9.53075 14.2703 7.33948 14.2703 5.18213C14.2703 1.86494 12.0645 0.125977 9.50084 0.125977C6.93561 0.125977 4.74192 1.86413 4.74192 5.18213C4.74192 7.34836 5.74669 9.54851 7.07696 10.9071C7.59549 12.2672 6.66826 12.772 6.47442 12.8423C3.78965 13.8139 0.639648 15.5836 0.639648 17.3306V17.9857C0.639648 20.3659 5.2548 20.9071 9.52588 20.9071C13.8034 20.9071 18.3604 20.3659 18.3604 17.9857V17.3306C18.3604 15.5311 15.1951 13.7752 12.3778 12.8423ZM7.92261 19.8765C7.92261 17.8177 9.23349 15.0384 9.23349 15.0384L8.32646 14.3268C8.32646 13.6467 9.50003 12.9352 9.50003 12.9352C9.50003 12.9352 10.6704 13.6581 10.6704 14.3268L9.76657 15.0384C9.76657 15.0384 11.0775 17.8072 11.0775 19.8991C11.0775 20.227 7.92261 20.1511 7.92261 19.8765Z" fill="white"/>
</svg>
