<svg width="17" height="18" viewBox="0 0 17 18" fill="none" xmlns="http://www.w3.org/2000/svg">
<path d="M1.5 6.48047H15.5M1.5 11.4805H15.5M1 8.98047C1 9.96538 1.19399 10.9407 1.5709 11.8506C1.94781 12.7605 2.50026 13.5873 3.1967 14.2838C3.89314 14.9802 4.71993 15.5327 5.62987 15.9096C6.53982 16.2865 7.51509 16.4805 8.5 16.4805C9.48491 16.4805 10.4602 16.2865 11.3701 15.9096C12.2801 15.5327 13.1069 14.9802 13.8033 14.2838C14.4997 13.5873 15.0522 12.7605 15.4291 11.8506C15.806 10.9407 16 9.96538 16 8.98047C16 7.99555 15.806 7.02028 15.4291 6.11034C15.0522 5.2004 14.4997 4.37361 13.8033 3.67717C13.1069 2.98073 12.2801 2.42828 11.3701 2.05137C10.4602 1.67446 9.48491 1.48047 8.5 1.48047C7.51509 1.48047 6.53982 1.67446 5.62987 2.05137C4.71993 2.42828 3.89314 2.98073 3.1967 3.67717C2.50026 4.37361 1.94781 5.2004 1.5709 6.11034C1.19399 7.02028 1 7.99555 1 8.98047Z" stroke="#3AA8AE" stroke-width="2" stroke-linecap="round" stroke-linejoin="round"/>
<path d="M8.08371 1.48047C6.67983 3.73015 5.93555 6.32869 5.93555 8.98047C5.93555 11.6322 6.67983 14.2308 8.08371 16.4805M8.91704 1.48047C10.3209 3.73015 11.0652 6.32869 11.0652 8.98047C11.0652 11.6322 10.3209 14.2308 8.91704 16.4805" stroke="#3AA8AE" stroke-width="2" stroke-linecap="round" stroke-linejoin="round"/>
</svg>
