<svg width="16" height="18" viewBox="0 0 16 18" fill="none" xmlns="http://www.w3.org/2000/svg">
<path d="M8 0.0478516C9.06087 0.0478516 10.0783 0.498065 10.8284 1.29945C11.5786 2.10084 12 3.18775 12 4.32108C12 5.45441 11.5786 6.54133 10.8284 7.34271C10.0783 8.1441 9.06087 8.59431 8 8.59431C6.93913 8.59431 5.92172 8.1441 5.17157 7.34271C4.42143 6.54133 4 5.45441 4 4.32108C4 3.18775 4.42143 2.10084 5.17157 1.29945C5.92172 0.498065 6.93913 0.0478516 8 0.0478516ZM8 2.18447C7.46957 2.18447 6.96086 2.40957 6.58579 2.81027C6.21071 3.21096 6 3.75442 6 4.32108C6 4.88775 6.21071 5.4312 6.58579 5.8319C6.96086 6.23259 7.46957 6.4577 8 6.4577C8.53043 6.4577 9.03914 6.23259 9.41421 5.8319C9.78929 5.4312 10 4.88775 10 4.32108C10 3.75442 9.78929 3.21096 9.41421 2.81027C9.03914 2.40957 8.53043 2.18447 8 2.18447ZM8 9.66262C10.67 9.66262 16 11.0835 16 13.9358V17.1408H0V13.9358C0 11.0835 5.33 9.66262 8 9.66262ZM8 11.6924C5.03 11.6924 1.9 13.2521 1.9 13.9358V15.111H14.1V13.9358C14.1 13.2521 10.97 11.6924 8 11.6924Z" fill="#38B98C"/>
</svg>
