<svg width="20" height="16" viewBox="0 0 20 16" fill="none" xmlns="http://www.w3.org/2000/svg">
<path d="M1 2.97335C1 2.48081 1.21071 2.00844 1.58579 1.66016C1.96086 1.31187 2.46957 1.11621 3 1.11621H17C17.5304 1.11621 18.0391 1.31187 18.4142 1.66016C18.7893 2.00844 19 2.48081 19 2.97335V12.2591C19 12.7516 18.7893 13.224 18.4142 13.5723C18.0391 13.9205 17.5304 14.1162 17 14.1162H3C2.46957 14.1162 1.96086 13.9205 1.58579 13.5723C1.21071 13.224 1 12.7516 1 12.2591V7.61621V2.97335Z" stroke="#3AA8AE" stroke-width="2" stroke-linecap="round" stroke-linejoin="round"/>
<path d="M1 2.97363L10 8.54506L19 2.97363" stroke="#3AA8AE" stroke-width="2" stroke-linecap="round" stroke-linejoin="round"/>
</svg>
