<svg width="14" height="16" viewBox="0 0 14 16" fill="none" xmlns="http://www.w3.org/2000/svg">
<path d="M3.25 7.55657H4.75V9.05819H3.25V7.55657ZM13.75 3.80254V14.3138C13.75 15.1397 13.075 15.8154 12.25 15.8154H1.75C1.35218 15.8154 0.970644 15.6572 0.68934 15.3756C0.408035 15.094 0.25 14.7121 0.25 14.3138L0.2575 3.80254C0.2575 2.97666 0.9175 2.30093 1.75 2.30093H2.5V0.799316H4V2.30093H10V0.799316H11.5V2.30093H12.25C13.075 2.30093 13.75 2.97666 13.75 3.80254ZM1.75 5.30416H12.25V3.80254H1.75V5.30416ZM12.25 14.3138V6.80577H1.75V14.3138H12.25ZM9.25 9.05819H10.75V7.55657H9.25V9.05819ZM6.25 9.05819H7.75V7.55657H6.25V9.05819Z" fill="#3AA8AE"/>
</svg>
