<svg width="17" height="19" viewBox="0 0 17 19" fill="none" xmlns="http://www.w3.org/2000/svg">
<path d="M1 17.7639V15.9834C1 15.0389 1.35119 14.1332 1.97631 13.4653C2.60143 12.7975 3.44928 12.4223 4.33333 12.4223H7.66667C8.55072 12.4223 9.39857 12.7975 10.0237 13.4653C10.6488 14.1332 11 15.0389 11 15.9834V17.7639M11.8333 1.85499C12.5503 2.05112 13.1859 2.4966 13.6397 3.12121C14.0935 3.74582 14.3399 4.51403 14.3399 5.30473C14.3399 6.09543 14.0935 6.86364 13.6397 7.48826C13.1859 8.11287 12.5503 8.55835 11.8333 8.75448M16 17.7639V15.9834C15.9958 15.1974 15.7483 14.435 15.2961 13.8151C14.8439 13.1951 14.2124 12.7523 13.5 12.5559M2.66667 5.30028C2.66667 6.24473 3.01786 7.15049 3.64298 7.81831C4.2681 8.48613 5.11594 8.86131 6 8.86131C6.88405 8.86131 7.7319 8.48613 8.35702 7.81831C8.98214 7.15049 9.33333 6.24473 9.33333 5.30028C9.33333 4.35584 8.98214 3.45008 8.35702 2.78226C7.7319 2.11444 6.88405 1.73926 6 1.73926C5.11594 1.73926 4.2681 2.11444 3.64298 2.78226C3.01786 3.45008 2.66667 4.35584 2.66667 5.30028Z" stroke="#3AA8AE" stroke-width="2" stroke-linecap="round" stroke-linejoin="round"/>
</svg>
