<svg width="12" height="19" viewBox="0 0 12 19" fill="none" xmlns="http://www.w3.org/2000/svg">
<path d="M5.16667 2.56115H6.83333M6 14.1345V14.1434M1 3.45141C1 2.97919 1.17559 2.52631 1.48816 2.1924C1.80072 1.85849 2.22464 1.6709 2.66667 1.6709H9.33333C9.77536 1.6709 10.1993 1.85849 10.5118 2.1924C10.8244 2.52631 11 2.97919 11 3.45141V15.915C11 16.3872 10.8244 16.8401 10.5118 17.174C10.1993 17.5079 9.77536 17.6955 9.33333 17.6955H2.66667C2.22464 17.6955 1.80072 17.5079 1.48816 17.174C1.17559 16.8401 1 16.3872 1 15.915V3.45141Z" stroke="#3AA8AE" stroke-width="2" stroke-linecap="round" stroke-linejoin="round"/>
</svg>
