<svg width="12" height="12" viewBox="0 0 12 12" fill="none" xmlns="http://www.w3.org/2000/svg">
<path d="M6 0C2.6916 0 0 2.6916 0 6C0 9.3084 2.6916 12 6 12C9.3084 12 12 9.3084 12 6C12 2.6916 9.3084 0 6 0ZM8.55 6.45H6.45V8.55C6.45 8.7987 6.2487 9 6 9C5.7513 9 5.55 8.7987 5.55 8.55V6.45H3.45C3.2013 6.45 3 6.2487 3 6C3 5.7513 3.2013 5.55 3.45 5.55H5.55V3.45C5.55 3.2013 5.7513 3 6 3C6.2487 3 6.45 3.2013 6.45 3.45V5.55H8.55C8.7987 5.55 9 5.7513 9 6C9 6.2487 8.7987 6.45 8.55 6.45Z" fill="#3AA8AE"/>
</svg>
