<svg width="21" height="21" viewBox="0 0 21 21" fill="none" xmlns="http://www.w3.org/2000/svg">
<path d="M0 10.5C0 7.71523 1.10625 5.04451 3.07538 3.07538C5.04451 1.10625 7.71523 0 10.5 0C13.2848 0 15.9555 1.10625 17.9246 3.07538C19.8938 5.04451 21 7.71523 21 10.5C21 13.2848 19.8938 15.9555 17.9246 17.9246C15.9555 19.8938 13.2848 21 10.5 21C7.71523 21 5.04451 19.8938 3.07538 17.9246C1.10625 15.9555 0 13.2848 0 10.5ZM9.84375 1.41356C8.96437 1.68131 8.09156 2.48981 7.36706 3.84825C7.12836 4.29988 6.92306 4.76838 6.75281 5.25H9.84375V1.41356ZM5.36812 5.25C5.58688 4.55282 5.86802 3.87678 6.20813 3.23006C6.43507 2.80095 6.69715 2.39136 6.99169 2.0055C5.3655 2.6799 3.96638 3.80575 2.95969 5.25H5.36812ZM4.60425 9.84375C4.64362 8.69269 4.78538 7.58887 5.01375 6.5625H2.19712C1.70772 7.59288 1.41568 8.70583 1.33613 9.84375H4.60425ZM6.36169 6.5625C6.10354 7.63849 5.95491 8.73784 5.91806 9.84375H9.84375V6.5625H6.36169ZM11.1562 6.5625V9.84375H15.0806C15.0443 8.73788 14.8961 7.63853 14.6383 6.5625H11.1562ZM5.91938 11.1562C5.95579 12.2621 6.10398 13.3615 6.36169 14.4375H9.84375V11.1562H5.91938ZM11.1562 11.1562V14.4375H14.6383C14.8837 13.4334 15.0399 12.327 15.0819 11.1562H11.1562ZM6.75281 15.75C6.93394 16.2566 7.14 16.7265 7.36706 17.1518C8.09156 18.5102 8.96569 19.3174 9.84375 19.5864V15.75H6.75281ZM6.99169 18.9945C6.69713 18.6087 6.43505 18.1991 6.20813 17.7699C5.86803 17.1232 5.58689 16.4472 5.36812 15.75H2.95969C3.96633 17.1943 5.36547 18.3202 6.99169 18.9945ZM5.01375 14.4375C4.7764 13.3587 4.63932 12.2603 4.60425 11.1562H1.33613C1.4175 12.3244 1.71806 13.4308 2.19712 14.4375H5.01375ZM14.0083 18.9945C15.6345 18.3202 17.0337 17.1943 18.0403 15.75H15.6319C15.4131 16.4472 15.132 17.1232 14.7919 17.7699C14.565 18.1991 14.3029 18.6087 14.0083 18.9945ZM11.1562 15.75V19.5864C12.0356 19.3187 12.9084 18.5102 13.6329 17.1518C13.86 16.7265 14.0661 16.2566 14.2472 15.75H11.1562ZM15.9862 14.4375H18.8029C19.2819 13.4308 19.5825 12.3244 19.6639 11.1562H16.3958C16.3607 12.2603 16.2236 13.3587 15.9862 14.4375ZM19.6639 9.84375C19.5843 8.70583 19.2923 7.59289 18.8029 6.5625H15.9862C16.2146 7.58887 16.3564 8.69269 16.3958 9.84375H19.6639ZM14.7919 3.23006C15.1161 3.83906 15.3982 4.51631 15.6319 5.25H18.0403C17.0337 3.8057 15.6345 2.67983 14.0083 2.0055C14.2944 2.37825 14.5569 2.79037 14.7919 3.23006ZM14.2472 5.25C14.077 4.76837 13.8717 4.29987 13.6329 3.84825C12.9084 2.48981 12.0356 1.68263 11.1562 1.41356V5.25H14.2472Z" fill="#231F20"/>
</svg>
