<svg width="18" height="17" viewBox="0 0 18 17" fill="none" xmlns="http://www.w3.org/2000/svg">
<path d="M17.405 4.31H14.605V7.12C14.605 7.25261 14.5523 7.37979 14.4586 7.47355C14.3648 7.56732 14.2376 7.62 14.105 7.62C13.9724 7.62 13.8452 7.56732 13.7514 7.47355C13.6577 7.37979 13.605 7.25261 13.605 7.12V4.31H10.795C10.6624 4.31 10.5352 4.25732 10.4414 4.16355C10.3477 4.06979 10.295 3.94261 10.295 3.81C10.295 3.67739 10.3477 3.55021 10.4414 3.45645C10.5352 3.36268 10.6624 3.31 10.795 3.31H13.605V0.5C13.605 0.367392 13.6577 0.240215 13.7514 0.146447C13.8452 0.0526785 13.9724 0 14.105 0C14.2376 0 14.3648 0.0526785 14.4586 0.146447C14.5523 0.240215 14.605 0.367392 14.605 0.5V3.31H17.405C17.5376 3.31 17.6648 3.36268 17.7586 3.45645C17.8523 3.55021 17.905 3.67739 17.905 3.81C17.905 3.94261 17.8523 4.06979 17.7586 4.16355C17.6648 4.25732 17.5376 4.31 17.405 4.31ZM0.5 4.31C0.367392 4.31 0.240215 4.25732 0.146446 4.16355C0.0526783 4.06979 0 3.94261 0 3.81C0 3.67739 0.0526783 3.55021 0.146446 3.45645C0.240215 3.36268 0.367392 3.31 0.5 3.31H7.119C7.25161 3.31 7.37879 3.36268 7.47255 3.45645C7.56632 3.55021 7.619 3.67739 7.619 3.81C7.619 3.94261 7.56632 4.06979 7.47255 4.16355C7.37879 4.25732 7.25161 4.31 7.119 4.31H0.5ZM10.791 12.53C10.6584 12.53 10.5312 12.4773 10.4374 12.3836C10.3437 12.2898 10.291 12.1626 10.291 12.03C10.291 11.8974 10.3437 11.7702 10.4374 11.6764C10.5312 11.5827 10.6584 11.53 10.791 11.53H17.41C17.5426 11.53 17.6698 11.5827 17.7636 11.6764C17.8573 11.7702 17.91 11.8974 17.91 12.03C17.91 12.1626 17.8573 12.2898 17.7636 12.3836C17.6698 12.4773 17.5426 12.53 17.41 12.53H10.791ZM10.791 16.671C10.6584 16.671 10.5312 16.6183 10.4374 16.5246C10.3437 16.4308 10.291 16.3036 10.291 16.171C10.291 16.0384 10.3437 15.9112 10.4374 15.8174C10.5312 15.7237 10.6584 15.671 10.791 15.671H17.41C17.5426 15.671 17.6698 15.7237 17.7636 15.8174C17.8573 15.9112 17.91 16.0384 17.91 16.171C17.91 16.3036 17.8573 16.4308 17.7636 16.5246C17.6698 16.6183 17.5426 16.671 17.41 16.671H10.791ZM6.505 16.09C6.58628 16.1862 6.62825 16.3096 6.62252 16.4354C6.61678 16.5612 6.56377 16.6803 6.47407 16.7687C6.38438 16.8571 6.26461 16.9085 6.13871 16.9124C6.01281 16.9164 5.89006 16.8726 5.795 16.79L3.815 14.81C3.155 15.46 2.485 16.13 1.825 16.79C1.72994 16.8726 1.60719 16.9164 1.48129 16.9124C1.35539 16.9085 1.23562 16.8571 1.14593 16.7687C1.05623 16.6803 1.00322 16.5612 0.997482 16.4354C0.991748 16.3096 1.03372 16.1862 1.115 16.09L3.105 14.1L1.115 12.11C1.03372 12.0138 0.991748 11.8904 0.997482 11.7646C1.00322 11.6388 1.05623 11.5197 1.14593 11.4313C1.23562 11.3429 1.35539 11.2915 1.48129 11.2876C1.60719 11.2836 1.72994 11.3274 1.825 11.41L2.405 11.99L3.805 13.39C4.475 12.73 5.135 12.07 5.795 11.41C5.89006 11.3274 6.01281 11.2836 6.13871 11.2876C6.26461 11.2915 6.38438 11.3429 6.47407 11.4313C6.56377 11.5197 6.61678 11.6388 6.62252 11.7646C6.62825 11.8904 6.58628 12.0138 6.505 12.11L4.515 14.1L6.505 16.09Z" fill="#38B98C"/>
</svg>
