<svg width="18" height="22" viewBox="0 0 18 22" fill="none" xmlns="http://www.w3.org/2000/svg">
<path d="M18 17.8095V18.8571H0V17.8095L2 15.7143V9.42857C2 6.18095 4.03 3.32095 7 2.39905V2.09524C7 1.53955 7.21071 1.00661 7.58579 0.613681C7.96086 0.220748 8.46957 0 9 0C9.53043 0 10.0391 0.220748 10.4142 0.613681C10.7893 1.00661 11 1.53955 11 2.09524V2.39905C13.97 3.32095 16 6.18095 16 9.42857V15.7143L18 17.8095ZM11 19.9048C11 20.4605 10.7893 20.9934 10.4142 21.3863C10.0391 21.7793 9.53043 22 9 22C8.46957 22 7.96086 21.7793 7.58579 21.3863C7.21071 20.9934 7 20.4605 7 19.9048" fill="#38B98C"/>
</svg>
