<svg width="24" height="21" viewBox="0 0 24 21" fill="none" xmlns="http://www.w3.org/2000/svg">
<path d="M20.5418 5.43719e-09C21.4239 -4.97253e-05 22.2727 0.341046 22.9144 0.953498C23.5562 1.56595 23.9425 2.40346 23.9942 3.29467L24 3.5V17.5C24 18.3927 23.663 19.2518 23.0579 19.9013C22.4528 20.5508 21.6253 20.9418 20.7447 20.9942L20.5418 21H7.98638C7.43757 20.9999 6.89667 20.8675 6.40839 20.614C5.92012 20.3604 5.49848 19.9928 5.17834 19.5417L5.05385 19.355L0.35074 11.7367C0.139876 11.3954 0.019825 11.0047 0.00225209 10.6026C-0.0153208 10.2005 0.0701826 9.80061 0.250453 9.44183L0.349588 9.26333L5.05385 1.645C5.34472 1.17389 5.7422 0.779627 6.21345 0.494799C6.68469 0.209971 7.21616 0.0427631 7.7639 0.00700005L7.98638 5.43719e-09H20.5418ZM20.5418 2.33333H7.98638C7.8159 2.33339 7.64755 2.37172 7.49347 2.44556C7.33939 2.51939 7.20341 2.6269 7.09532 2.76033L7.00887 2.88167L2.30576 10.5L7.00887 18.1183C7.0992 18.2647 7.2205 18.389 7.36402 18.4822C7.50754 18.5754 7.66971 18.6352 7.83883 18.6573L7.98638 18.6667H20.5418C20.8242 18.6666 21.0967 18.5617 21.3077 18.3718C21.5187 18.1819 21.6535 17.9203 21.6865 17.6365L21.6946 17.5V3.5C21.6945 3.21424 21.5909 2.93844 21.4032 2.7249C21.2156 2.51136 20.9571 2.37493 20.6767 2.3415L20.5418 2.33333ZM11.1806 6.37467L13.6243 8.85033L16.0704 6.37467C16.1775 6.26635 16.3047 6.18044 16.4446 6.12185C16.5845 6.06326 16.7344 6.03313 16.8858 6.03318C17.0372 6.03323 17.1871 6.06347 17.327 6.12216C17.4669 6.18086 17.5939 6.26686 17.7009 6.37525C17.808 6.48365 17.8929 6.61231 17.9507 6.75391C18.0086 6.89551 18.0384 7.04726 18.0384 7.2005C18.0383 7.35374 18.0084 7.50546 17.9504 7.64702C17.8924 7.78857 17.8075 7.91718 17.7004 8.0255L15.2566 10.5L17.7004 12.9745C17.9167 13.1933 18.0382 13.49 18.0384 13.7995C18.0385 14.109 17.9171 14.4058 17.7009 14.6247C17.4848 14.8437 17.1916 14.9667 16.8858 14.9668C16.58 14.9669 16.2867 14.8441 16.0704 14.6253L13.6255 12.1497L11.1806 14.6253C10.9643 14.8442 10.6709 14.9672 10.365 14.9672C10.0591 14.9672 9.76577 14.8442 9.54947 14.6253C9.33317 14.4064 9.21166 14.1095 9.21166 13.7999C9.21166 13.4903 9.33317 13.1934 9.54947 12.9745L11.9955 10.5L9.54947 8.0255C9.33317 7.80659 9.21166 7.50967 9.21166 7.20008C9.21166 6.89049 9.33317 6.59358 9.54947 6.37467C9.76577 6.15575 10.0591 6.03277 10.365 6.03277C10.6709 6.03277 10.9643 6.15575 11.1806 6.37467Z" fill="#212529" fill-opacity="0.7"/>
</svg>
