<svg width="12" height="8" viewBox="0 0 12 8" fill="none" xmlns="http://www.w3.org/2000/svg">
<path d="M5.66631 7.1418C5.53298 7.1418 5.40398 7.1168 5.27931 7.0668C5.15398 7.0168 5.04964 6.95013 4.96631 6.8668L0.366308 2.2668C0.182975 2.08346 0.0913086 1.85013 0.0913086 1.5668C0.0913086 1.28346 0.182975 1.05013 0.366308 0.866796C0.549642 0.683463 0.782975 0.591797 1.06631 0.591797C1.34964 0.591797 1.58298 0.683463 1.76631 0.866796L5.66631 4.7668L9.56631 0.866796C9.74964 0.683463 9.98298 0.591797 10.2663 0.591797C10.5496 0.591797 10.783 0.683463 10.9663 0.866796C11.1496 1.05013 11.2413 1.28346 11.2413 1.5668C11.2413 1.85013 11.1496 2.08346 10.9663 2.2668L6.36631 6.8668C6.26631 6.9668 6.15798 7.03746 6.04131 7.0788C5.92464 7.1208 5.79964 7.1418 5.66631 7.1418Z" fill="#38B98C"/>
</svg>
