<svg width="18" height="14" viewBox="0 0 18 14" fill="none" xmlns="http://www.w3.org/2000/svg">
<path d="M16.7778 0.333374H1.2222C0.92751 0.333374 0.644895 0.450437 0.436521 0.658811C0.228147 0.867185 0.111084 1.1498 0.111084 1.44449V12.5556C0.111084 12.8503 0.228147 13.1329 0.436521 13.3413C0.644895 13.5496 0.92751 13.6667 1.2222 13.6667H16.7778C17.0724 13.6667 17.3551 13.5496 17.5634 13.3413C17.7718 13.1329 17.8889 12.8503 17.8889 12.5556V1.44449C17.8889 1.1498 17.7718 0.867185 17.5634 0.658811C17.3551 0.450437 17.0724 0.333374 16.7778 0.333374ZM15.9222 12.5556H2.14442L6.03331 8.53337L5.23331 7.76115L1.2222 11.9112V2.28893L8.12775 9.16115C8.33593 9.3681 8.61754 9.48425 8.91108 9.48425C9.20462 9.48425 9.48624 9.3681 9.69442 9.16115L16.7778 2.11671V11.8389L12.6889 7.75004L11.9055 8.53337L15.9222 12.5556ZM1.94997 1.44449H15.8777L8.91108 8.37226L1.94997 1.44449Z" fill="#4B494B"/>
</svg>
