<svg width="18" height="13" viewBox="0 0 18 13" fill="none" xmlns="http://www.w3.org/2000/svg">
<path d="M2.16665 12.8333C1.73123 12.8333 1.35862 12.6784 1.04881 12.3686C0.73848 12.0583 0.583313 11.6854 0.583313 11.25V1.74996C0.583313 1.31454 0.73848 0.941931 1.04881 0.632126C1.35862 0.321793 1.73123 0.166626 2.16665 0.166626H6.91665L8.49998 1.74996H14.8333C15.2687 1.74996 15.6416 1.90513 15.9519 2.21546C16.2617 2.52526 16.4166 2.89788 16.4166 3.33329H7.84686L6.26352 1.74996H2.16665V11.25L4.06665 4.91663H17.6041L15.5656 11.7052C15.46 12.0482 15.2656 12.3221 14.9821 12.5269C14.6982 12.7312 14.3847 12.8333 14.0416 12.8333H2.16665ZM3.82915 11.25H14.0416L15.4666 6.49996H5.25415L3.82915 11.25Z" fill="#F8F8F8"/>
</svg>
