<svg width="20" height="16" viewBox="0 0 20 16" fill="none" xmlns="http://www.w3.org/2000/svg">
<path d="M1.66659 1.39171L2.73325 0.333374L16.6666 14.2667L15.6083 15.3334L13.0416 12.7667C12.0833 13.0834 11.0666 13.25 9.99992 13.25C5.83325 13.25 2.27492 10.6584 0.833252 7.00004C1.40825 5.53337 2.32492 4.24171 3.49159 3.21671L1.66659 1.39171ZM9.99992 4.50004C10.663 4.50004 11.2988 4.76343 11.7677 5.23227C12.2365 5.70111 12.4999 6.337 12.4999 7.00004C12.5003 7.28385 12.4524 7.56565 12.3583 7.83337L9.16658 4.64171C9.43431 4.54753 9.71611 4.49962 9.99992 4.50004ZM9.99992 0.750041C14.1666 0.750041 17.7249 3.34171 19.1666 7.00004C18.4865 8.72771 17.3307 10.2273 15.8333 11.325L14.6499 10.1334C15.8023 9.33619 16.7318 8.25759 17.3499 7.00004C16.6762 5.62499 15.6303 4.46652 14.331 3.65629C13.0317 2.84607 11.5311 2.41661 9.99992 2.41671C9.09158 2.41671 8.19992 2.56671 7.36658 2.83337L6.08325 1.55837C7.28325 1.04171 8.60825 0.750041 9.99992 0.750041ZM2.64992 7.00004C3.32362 8.37509 4.36956 9.53357 5.66886 10.3438C6.96816 11.154 8.4687 11.5835 9.99992 11.5834C10.5749 11.5834 11.1416 11.525 11.6666 11.4084L9.76658 9.50004C9.18672 9.43789 8.64561 9.1791 8.23323 8.76673C7.82085 8.35435 7.56207 7.81324 7.49992 7.23337L4.66658 4.39171C3.84158 5.10004 3.14992 5.98337 2.64992 7.00004Z" fill="#4B494B"/>
</svg>
