<svg width="38" height="43" viewBox="0 0 38 43" fill="none" xmlns="http://www.w3.org/2000/svg">
<path d="M0 43L3.16667 39.775L6.33333 43L9.5 39.775L12.6667 43L15.8333 39.775L19 43L22.1667 39.775L25.3333 43L28.5 39.775L31.6667 43L34.8333 39.775L38 43V0L34.8333 3.225L31.6667 0L28.5 3.225L25.3333 0L22.1667 3.225L19 0L15.8333 3.225L12.6667 0L9.5 3.225L6.33333 0L3.16667 3.225L0 0M31.6667 15.05H6.33333V10.75H31.6667M31.6667 23.65H6.33333V19.35H31.6667M31.6667 32.25H6.33333V27.95H31.6667V32.25Z" fill="#38B98C"/>
</svg>
