<svg width="18" height="16" viewBox="0 0 18 16" fill="none" xmlns="http://www.w3.org/2000/svg">
<path d="M0.955318 15.371C0.639445 15.371 0.405974 15.2337 0.254904 14.9589C0.103834 14.6842 0.103834 14.4095 0.254904 14.1347L7.87706 0.947738C8.02813 0.673009 8.26847 0.535645 8.59808 0.535645C8.92768 0.535645 9.16802 0.673009 9.31909 0.947738L16.9412 14.1347C17.0923 14.4095 17.0923 14.6842 16.9412 14.9589C16.7902 15.2337 16.5567 15.371 16.2408 15.371H0.955318ZM8.59808 6.30496C8.3646 6.30496 8.16904 6.3838 8.01138 6.5415C7.85316 6.69974 7.77406 6.89563 7.77406 7.12915V9.60171C7.77406 9.83523 7.85316 10.0308 8.01138 10.1885C8.16904 10.3468 8.3646 10.4259 8.59808 10.4259C8.83155 10.4259 9.02739 10.3468 9.1856 10.1885C9.34326 10.0308 9.42209 9.83523 9.42209 9.60171V7.12915C9.42209 6.89563 9.34326 6.69974 9.1856 6.5415C9.02739 6.3838 8.83155 6.30496 8.59808 6.30496ZM8.59808 12.8985C8.83155 12.8985 9.02739 12.8193 9.1856 12.6611C9.34326 12.5034 9.42209 12.3078 9.42209 12.0743C9.42209 11.8408 9.34326 11.6451 9.1856 11.4874C9.02739 11.3292 8.83155 11.2501 8.59808 11.2501C8.3646 11.2501 8.16904 11.3292 8.01138 11.4874C7.85316 11.6451 7.77406 11.8408 7.77406 12.0743C7.77406 12.3078 7.85316 12.5034 8.01138 12.6611C8.16904 12.8193 8.3646 12.8985 8.59808 12.8985ZM2.37675 13.7226H14.8194L8.59808 3.00821L2.37675 13.7226Z" fill="#FFA800"/>
</svg>
