<svg width="45" height="45" viewBox="0 0 45 45" fill="none" xmlns="http://www.w3.org/2000/svg">
<path d="M45 22.5C45 16.5326 42.6295 10.8097 38.4099 6.5901C34.1903 2.37053 28.4674 0 22.5 0C16.5326 0 10.8097 2.37053 6.5901 6.5901C2.37053 10.8097 0 16.5326 0 22.5C0 28.4674 2.37053 34.1903 6.5901 38.4099C10.8097 42.6295 16.5326 45 22.5 45C28.4674 45 34.1903 42.6295 38.4099 38.4099C42.6295 34.1903 45 28.4674 45 22.5ZM28.7072 25.3125L33.3394 29.9419C33.4703 30.0725 33.5742 30.2277 33.6451 30.3985C33.716 30.5694 33.7525 30.7525 33.7525 30.9375C33.7525 31.1225 33.716 31.3056 33.6451 31.4765C33.5742 31.6473 33.4703 31.8025 33.3394 31.9331L28.7072 36.5625C28.5775 36.6968 28.4223 36.8039 28.2507 36.8776C28.0792 36.9513 27.8946 36.9901 27.7079 36.9918C27.5212 36.9934 27.336 36.9578 27.1632 36.8871C26.9904 36.8164 26.8334 36.712 26.7013 36.5799C26.5693 36.4479 26.4649 36.2909 26.3942 36.1181C26.3235 35.9452 26.2879 35.7601 26.2895 35.5733C26.2911 35.3866 26.3299 35.2021 26.4036 35.0305C26.4773 34.859 26.5844 34.7038 26.7188 34.5741L28.9491 32.3438H12.6562C12.2833 32.3438 11.9256 32.1956 11.6619 31.9319C11.3982 31.6681 11.25 31.3105 11.25 30.9375C11.25 30.5645 11.3982 30.2069 11.6619 29.9431C11.9256 29.6794 12.2833 29.5312 12.6563 29.5312H28.9491L26.7188 27.3009C26.5844 27.1712 26.4773 27.016 26.4036 26.8445C26.3299 26.6729 26.2911 26.4884 26.2895 26.3017C26.2879 26.1149 26.3235 25.9298 26.3942 25.7569C26.4649 25.5841 26.5693 25.4271 26.7013 25.2951C26.8334 25.163 26.9904 25.0586 27.1632 24.9879C27.336 24.9172 27.5212 24.8816 27.7079 24.8832C27.8946 24.8849 28.0792 24.9237 28.2507 24.9974C28.4223 25.0711 28.5775 25.1782 28.7072 25.3125ZM16.2928 8.4375C16.558 8.18134 16.9133 8.0396 17.282 8.0428C17.6507 8.04601 18.0034 8.1939 18.2641 8.45463C18.5248 8.71536 18.6727 9.06806 18.6759 9.43678C18.6792 9.80549 18.5374 10.1607 18.2813 10.4259L16.0509 12.6562H32.3438C32.7167 12.6562 33.0744 12.8044 33.3381 13.0681C33.6018 13.3319 33.75 13.6895 33.75 14.0625C33.75 14.4355 33.6018 14.7931 33.3381 15.0569C33.0744 15.3206 32.7167 15.4688 32.3438 15.4688L16.0509 15.4688L18.2812 17.6991C18.4156 17.8288 18.5227 17.984 18.5964 18.1555C18.6701 18.3271 18.7089 18.5116 18.7105 18.6983C18.7121 18.8851 18.6766 19.0702 18.6058 19.2431C18.5351 19.4159 18.4307 19.5729 18.2987 19.7049C18.1666 19.837 18.0096 19.9414 17.8368 20.0121C17.664 20.0828 17.4788 20.1184 17.2921 20.1168C17.1054 20.1151 16.9208 20.0763 16.7493 20.0026C16.5777 19.9289 16.4225 19.8218 16.2928 19.6875L11.6606 15.0581C11.397 14.7944 11.2489 14.4368 11.2489 14.0639C11.2489 13.691 11.397 13.3334 11.6606 13.0697L16.2928 8.4375Z" fill="#38B98C"/>
</svg>
