<svg width="45" height="45" viewBox="0 0 45 45" fill="none" xmlns="http://www.w3.org/2000/svg">
<path d="M13.504 45C12.2662 45 11.2068 44.5597 10.3261 43.6792C9.44381 42.7972 9.00268 41.7375 9.00268 40.5C9.00268 39.2625 9.44381 38.2028 10.3261 37.3208C11.2068 36.4403 12.2662 36 13.504 36C14.7419 36 15.8012 36.4403 16.682 37.3208C17.5642 38.2028 18.0054 39.2625 18.0054 40.5C18.0054 41.7375 17.5642 42.7972 16.682 43.6792C15.8012 44.5597 14.7419 45 13.504 45ZM36.0107 45C34.7729 45 33.7135 44.5597 32.8328 43.6792C31.9505 42.7972 31.5094 41.7375 31.5094 40.5C31.5094 39.2625 31.9505 38.2028 32.8328 37.3208C33.7135 36.4403 34.7729 36 36.0107 36C37.2486 36 38.3087 36.4403 39.1909 37.3208C40.0717 38.2028 40.5121 39.2625 40.5121 40.5C40.5121 41.7375 40.0717 42.7972 39.1909 43.6792C38.3087 44.5597 37.2486 45 36.0107 45ZM13.504 33.75C11.816 33.75 10.5406 33.009 9.67788 31.527C8.81512 30.0465 8.77761 28.575 9.56535 27.1125L12.6038 21.6L4.50134 4.5H2.1944C1.55671 4.5 1.03156 4.284 0.618934 3.852C0.206311 3.4215 0 2.8875 0 2.25C0 1.6125 0.216064 1.07775 0.648193 0.64575C1.07882 0.21525 1.61298 0 2.25067 0H5.90801C6.32063 0 6.7145 0.1125 7.08961 0.3375C7.46472 0.5625 7.74606 0.88125 7.93361 1.29375L9.45281 4.5H42.6502C43.663 4.5 44.357 4.875 44.7321 5.625C45.1072 6.375 45.0884 7.1625 44.6758 7.9875L36.6859 22.3875C36.2733 23.1375 35.7294 23.7188 35.0542 24.1313C34.379 24.5438 33.61 24.75 32.7472 24.75H15.9798L13.504 29.25H38.3177C38.9553 29.25 39.4805 29.4653 39.8931 29.8958C40.3057 30.3277 40.5121 30.8625 40.5121 31.5C40.5121 32.1375 40.296 32.6715 39.8639 33.102C39.4332 33.534 38.8991 33.75 38.2614 33.75H13.504Z" fill="#38B98C"/>
</svg>
