<svg width="10" height="7" viewBox="0 0 10 7" fill="none" xmlns="http://www.w3.org/2000/svg">
<path d="M1.17673 6.79385C1.03756 6.79385 0.920986 6.74695 0.827007 6.65315C0.7327 6.55967 0.685547 6.44372 0.685547 6.30529C0.685547 6.16687 0.7327 6.05092 0.827007 5.95744C0.920986 5.86364 1.03756 5.81674 1.17673 5.81674H6.57971C6.71888 5.81674 6.83561 5.86364 6.92992 5.95744C7.0239 6.05092 7.07089 6.16687 7.07089 6.30529C7.07089 6.44372 7.0239 6.55967 6.92992 6.65315C6.83561 6.74695 6.71888 6.79385 6.57971 6.79385H1.17673ZM1.17673 4.35106C1.03756 4.35106 0.920986 4.30416 0.827007 4.21036C0.7327 4.11688 0.685547 4.00093 0.685547 3.8625C0.685547 3.72408 0.7327 3.60796 0.827007 3.51416C0.920986 3.42068 1.03756 3.37394 1.17673 3.37394H5.10617C5.24534 3.37394 5.36207 3.42068 5.45638 3.51416C5.55036 3.60796 5.59735 3.72408 5.59735 3.8625C5.59735 4.00093 5.55036 4.11688 5.45638 4.21036C5.36207 4.30416 5.24534 4.35106 5.10617 4.35106H1.17673ZM1.17673 1.90827C1.03756 1.90827 0.920986 1.86153 0.827007 1.76805C0.7327 1.67425 0.685547 1.55814 0.685547 1.41971C0.685547 1.28129 0.7327 1.16517 0.827007 1.07137C0.920986 0.977891 1.03756 0.931152 1.17673 0.931152H6.57971C6.71888 0.931152 6.83561 0.977891 6.92992 1.07137C7.0239 1.16517 7.07089 1.28129 7.07089 1.41971C7.07089 1.55814 7.0239 1.67425 6.92992 1.76805C6.83561 1.86153 6.71888 1.90827 6.57971 1.90827H1.17673ZM7.75854 3.8625L9.18296 5.27932C9.27301 5.36889 9.31804 5.48289 9.31804 5.62131C9.31804 5.75974 9.27301 5.87373 9.18296 5.9633C9.09291 6.05287 8.97831 6.09766 8.83914 6.09766C8.69997 6.09766 8.58536 6.05287 8.49531 5.9633L6.72706 4.20449C6.62883 4.10678 6.57971 3.99278 6.57971 3.8625C6.57971 3.73222 6.62883 3.61822 6.72706 3.52051L8.49531 1.7617C8.58536 1.67213 8.69997 1.62735 8.83914 1.62735C8.97831 1.62735 9.09291 1.67213 9.18296 1.7617C9.27301 1.85127 9.31804 1.96527 9.31804 2.10369C9.31804 2.24212 9.27301 2.35611 9.18296 2.44568L7.75854 3.8625Z" fill="black"/>
</svg>
