<svg width="16" height="26" viewBox="0 0 16 26" fill="none" xmlns="http://www.w3.org/2000/svg">
<mask id="path-1-inside-1_1145_3137" fill="white">
<path d="M6.71051 25.5834V22.6011C5.2938 22.3237 4.07115 21.7919 3.04257 21.0059C2.01291 20.2199 1.25751 19.1102 0.776367 17.6768L3.74344 16.6365C4.14439 17.7462 4.73941 18.59 5.52849 19.168C6.3165 19.7459 7.35204 20.0349 8.63509 20.0349C9.73104 20.0349 10.6602 19.8213 11.4225 19.3941C12.1838 18.9659 12.5645 18.301 12.5645 17.3994C12.5645 16.5902 12.2704 15.9485 11.6824 15.4741C11.0943 15.0006 9.73104 14.4633 7.59261 13.8622C5.2938 13.238 3.71671 12.4927 2.86134 11.6262C2.00596 10.7588 1.57828 9.70087 1.57828 8.45246C1.57828 6.94975 2.13962 5.78226 3.26229 4.94999C4.38497 4.11771 5.53437 3.64378 6.71051 3.52819V0.615234H9.91815V3.52819C11.2547 3.71314 12.3576 4.13482 13.2268 4.79324C14.095 5.45259 14.7296 6.25619 15.1306 7.20406L12.1635 8.31375C11.8427 7.57396 11.3883 7.01911 10.8003 6.64921C10.2122 6.27931 9.41027 6.09436 8.39452 6.09436C7.21838 6.09436 6.32292 6.32 5.70812 6.77128C5.09332 7.22163 4.78592 7.78202 4.78592 8.45246C4.78592 9.21538 5.18688 9.81647 5.98879 10.2557C6.7907 10.695 8.18068 11.1574 10.1587 11.6428C12.0031 12.1052 13.4 12.839 14.3495 13.8442C15.2979 14.8503 15.7721 16.0123 15.7721 17.33C15.7721 18.9715 15.2108 20.2199 14.0881 21.0753C12.9654 21.9307 11.5754 22.4624 9.91815 22.6705V25.5834H6.71051Z"/>
</mask>
<path d="M6.71051 25.5834V22.6011C5.2938 22.3237 4.07115 21.7919 3.04257 21.0059C2.01291 20.2199 1.25751 19.1102 0.776367 17.6768L3.74344 16.6365C4.14439 17.7462 4.73941 18.59 5.52849 19.168C6.3165 19.7459 7.35204 20.0349 8.63509 20.0349C9.73104 20.0349 10.6602 19.8213 11.4225 19.3941C12.1838 18.9659 12.5645 18.301 12.5645 17.3994C12.5645 16.5902 12.2704 15.9485 11.6824 15.4741C11.0943 15.0006 9.73104 14.4633 7.59261 13.8622C5.2938 13.238 3.71671 12.4927 2.86134 11.6262C2.00596 10.7588 1.57828 9.70087 1.57828 8.45246C1.57828 6.94975 2.13962 5.78226 3.26229 4.94999C4.38497 4.11771 5.53437 3.64378 6.71051 3.52819V0.615234H9.91815V3.52819C11.2547 3.71314 12.3576 4.13482 13.2268 4.79324C14.095 5.45259 14.7296 6.25619 15.1306 7.20406L12.1635 8.31375C11.8427 7.57396 11.3883 7.01911 10.8003 6.64921C10.2122 6.27931 9.41027 6.09436 8.39452 6.09436C7.21838 6.09436 6.32292 6.32 5.70812 6.77128C5.09332 7.22163 4.78592 7.78202 4.78592 8.45246C4.78592 9.21538 5.18688 9.81647 5.98879 10.2557C6.7907 10.695 8.18068 11.1574 10.1587 11.6428C12.0031 12.1052 13.4 12.839 14.3495 13.8442C15.2979 14.8503 15.7721 16.0123 15.7721 17.33C15.7721 18.9715 15.2108 20.2199 14.0881 21.0753C12.9654 21.9307 11.5754 22.4624 9.91815 22.6705V25.5834H6.71051Z" fill="#231F20"/>
<path d="M6.71051 25.5834H-19.2895V51.5834H6.71051V25.5834ZM6.71051 22.6011H32.7105V1.19868L11.707 -2.91429L6.71051 22.6011ZM3.04257 21.0059L18.8296 0.347474L18.8192 0.339566L3.04257 21.0059ZM0.776367 17.6768L-7.82649 -6.85868L-32.036 1.62987L-23.872 25.9507L0.776367 17.6768ZM3.74344 16.6365L28.1962 7.80121L19.4444 -16.4206L-4.85942 -7.89902L3.74344 16.6365ZM5.52849 19.168L20.9055 -1.79739L20.8988 -1.80236L20.892 -1.80733L5.52849 19.168ZM11.4225 19.3941L24.1334 42.0752L24.1507 42.0655L24.1679 42.0558L11.4225 19.3941ZM11.6824 15.4741L28.007 -4.7622L27.9973 -4.76998L27.9877 -4.77775L11.6824 15.4741ZM7.59261 13.8622L14.6282 -11.1677L14.5171 -11.199L14.4058 -11.2292L7.59261 13.8622ZM2.86134 11.6262L-15.6515 29.882L-15.6418 29.8919L2.86134 11.6262ZM6.71051 3.52819L9.25359 29.4035L32.7105 27.0981V3.52819H6.71051ZM6.71051 0.615234V-25.3848H-19.2895V0.615234H6.71051ZM9.91815 0.615234H35.9181V-25.3848H9.91815V0.615234ZM9.91815 3.52819H-16.0819V26.178L6.35419 29.2828L9.91815 3.52819ZM13.2268 4.79324L28.9516 -15.9126L28.9385 -15.9226L28.9253 -15.9325L13.2268 4.79324ZM15.1306 7.20406L24.2385 31.5566L49.6432 22.0551L39.0763 -2.92519L15.1306 7.20406ZM12.1635 8.31375L-11.6908 18.6566L-1.8646 41.3193L21.2715 32.6663L12.1635 8.31375ZM5.70812 6.77128L21.0725 27.7459L21.0827 27.7384L21.093 27.7309L5.70812 6.77128ZM10.1587 11.6428L16.4811 -13.5768L16.4187 -13.5924L16.3562 -13.6077L10.1587 11.6428ZM14.3495 13.8442L33.2691 -3.98975L33.26 -3.99941L33.2508 -4.00907L14.3495 13.8442ZM9.91815 22.6705L6.67933 -3.12703L-16.0819 -0.269415V22.6705H9.91815ZM9.91815 25.5834V51.5834H35.9181V25.5834H9.91815ZM32.7105 25.5834V22.6011H-19.2895V25.5834H32.7105ZM11.707 -2.91429C13.7561 -2.51304 16.3324 -1.56086 18.8296 0.347477L-12.7444 41.6643C-8.19006 45.1447 -3.16846 47.1604 1.71401 48.1165L11.707 -2.91429ZM18.8192 0.339566C22.5734 3.20551 24.5362 6.75601 25.4247 9.40291L-23.872 25.9507C-22.0212 31.4643 -18.5476 37.2342 -12.7341 41.6723L18.8192 0.339566ZM9.37923 42.2123L12.3463 41.172L-4.85942 -7.89902L-7.82649 -6.85868L9.37923 42.2123ZM-20.7093 25.4717C-18.9198 30.4246 -15.5873 35.93 -9.835 40.1433L20.892 -1.80733C25.0661 1.25005 27.2086 5.06778 28.1962 7.80121L-20.7093 25.4717ZM-9.84856 40.1333C-3.38712 44.8725 3.54478 46.0349 8.63509 46.0349V-5.96508C11.1593 -5.96508 16.0201 -5.3806 20.9055 -1.79739L-9.84856 40.1333ZM8.63509 46.0349C13.0688 46.0349 18.6203 45.1648 24.1334 42.0752L-1.28834 -3.28706C2.70003 -5.5222 6.3933 -5.96508 8.63509 -5.96508V46.0349ZM24.1679 42.0558C33.4395 36.8413 38.5645 27.3185 38.5645 17.3994H-13.4355C-13.4355 14.1249 -12.7156 9.90236 -10.2851 5.65673C-7.83044 1.36902 -4.45053 -1.50862 -1.32285 -3.26768L24.1679 42.0558ZM38.5645 17.3994C38.5645 9.3689 35.1949 1.0363 28.007 -4.7622L-4.64228 35.7103C-7.2557 33.6021 -9.64722 30.7337 -11.2933 27.1408C-12.9153 23.6005 -13.4355 20.1872 -13.4355 17.3994H38.5645ZM27.9877 -4.77775C24.5307 -7.56104 21.0345 -8.96778 19.7522 -9.47316C17.9512 -10.183 16.1603 -10.7371 14.6282 -11.1677L0.556991 38.8922C1.16334 39.0627 1.12333 39.0777 0.685536 38.9052C0.453384 38.8137 -0.107576 38.5847 -0.862539 38.1937C-1.52977 37.8481 -2.9613 37.0638 -4.62298 35.7259L27.9877 -4.77775ZM14.4058 -11.2292C14.2381 -11.2748 14.8044 -11.1402 15.7953 -10.6719C16.6686 -10.2592 18.9445 -9.09092 21.3644 -6.6395L-15.6418 29.8919C-9.72286 35.8877 -2.45345 38.0758 0.779437 38.9537L14.4058 -11.2292ZM21.3742 -6.62963C23.1885 -4.78972 24.8478 -2.42206 26.0037 0.4373C27.1547 3.28433 27.5783 6.05219 27.5783 8.45246H-24.4217C-24.4217 16.3443 -21.4356 24.0164 -15.6515 29.882L21.3742 -6.62963ZM27.5783 8.45246C27.5783 10.9792 27.0915 14.2637 25.4315 17.7162C23.7407 21.2328 21.302 23.9419 18.7462 25.8366L-12.2216 -15.9366C-20.5184 -9.78595 -24.4217 -0.563462 -24.4217 8.45246H27.5783ZM18.7462 25.8366C16.7831 27.2919 13.5569 28.9806 9.25359 29.4035L4.16742 -22.3471C-2.48812 -21.693 -8.01314 -19.0564 -12.2216 -15.9366L18.7462 25.8366ZM32.7105 3.52819V0.615234H-19.2895V3.52819H32.7105ZM6.71051 26.6152H9.91815V-25.3848H6.71051V26.6152ZM-16.0819 0.615234V3.52819H35.9181V0.615234H-16.0819ZM6.35419 29.2828C4.31657 29.0008 0.955466 28.1148 -2.47167 25.519L28.9253 -15.9325C23.7597 -19.8452 18.1928 -21.5745 13.4821 -22.2264L6.35419 29.2828ZM-2.49794 25.4991C-5.02441 23.5804 -7.34093 20.8184 -8.81517 17.3333L39.0763 -2.92519C36.8002 -8.30605 33.2145 -12.6752 28.9516 -15.9126L-2.49794 25.4991ZM6.02261 -17.1485L3.05555 -16.0388L21.2715 32.6663L24.2385 31.5566L6.02261 -17.1485ZM36.0178 -2.02907C33.9565 -6.78315 30.3484 -11.7706 24.6436 -15.359L-3.04308 28.6574C-7.5718 25.8088 -10.271 21.9311 -11.6908 18.6566L36.0178 -2.02907ZM24.6436 -15.359C18.4136 -19.2777 12.1761 -19.9056 8.39452 -19.9056V32.0944C6.64443 32.0944 2.01073 31.8363 -3.04308 28.6574L24.6436 -15.359ZM8.39452 -19.9056C4.4979 -19.9056 -2.76929 -19.2586 -9.67675 -14.1883L21.093 27.7309C15.4151 31.8986 9.93886 32.0944 8.39452 32.0944V-19.9056ZM-9.65624 -14.2034C-15.907 -9.62457 -21.2141 -1.72502 -21.2141 8.45246H30.7859C30.7859 12.2668 29.8648 16.2917 27.8121 20.0336C25.8198 23.6657 23.2494 26.1513 21.0725 27.7459L-9.65624 -14.2034ZM-21.2141 8.45246C-21.2141 20.7683 -13.6615 29.1371 -6.50187 33.0589L18.4794 -12.5474C20.8027 -11.2748 24.054 -8.94335 26.7161 -4.9525C29.5286 -0.736178 30.7859 4.00077 30.7859 8.45246H-21.2141ZM-6.50187 33.0589C-2.48199 35.2608 1.79822 36.3625 3.96122 36.8934L16.3562 -13.6077C15.8049 -13.743 15.674 -13.7939 15.8394 -13.7389C15.9339 -13.7075 16.2004 -13.6165 16.5914 -13.4557C16.9617 -13.3033 17.6331 -13.011 18.4794 -12.5474L-6.50187 33.0589ZM3.83639 36.8624C2.61277 36.5557 -1.04397 35.4113 -4.55183 31.6975L33.2508 -4.00907C27.8441 -9.73326 21.3935 -12.3453 16.4811 -13.5768L3.83639 36.8624ZM-4.57006 31.6782C-6.06866 30.0883 -7.56612 27.9652 -8.65608 25.2944C-9.75496 22.6017 -10.2279 19.8686 -10.2279 17.33H41.7721C41.7721 9.03077 38.5181 1.57882 33.2691 -3.98975L-4.57006 31.6782ZM-10.2279 17.33C-10.2279 15.1947 -9.8584 12.1629 -8.36204 8.83499C-6.80998 5.38322 -4.44138 2.50634 -1.66927 0.394213L29.8454 41.7563C38.5267 35.1419 41.7721 25.5889 41.7721 17.33H-10.2279ZM-1.66927 0.394213C1.47539 -2.00177 4.62514 -2.86913 6.67933 -3.12703L13.157 48.4679C18.5257 47.7939 24.4554 45.8631 29.8454 41.7563L-1.66927 0.394213ZM-16.0819 22.6705V25.5834H35.9181V22.6705H-16.0819ZM9.91815 -0.416596H6.71051V51.5834H9.91815V-0.416596Z" fill="#231F20" mask="url(#path-1-inside-1_1145_3137)"/>
</svg>
