<svg width="45" height="45" viewBox="0 0 45 45" fill="none" xmlns="http://www.w3.org/2000/svg">
<path d="M30.6818 14.3182H41.9318L30.6818 3.06818V14.3182ZM12.2727 0H32.7273L45 12.2727V32.7273C45 33.8122 44.569 34.8528 43.8018 35.62C43.0346 36.3872 41.9941 36.8182 40.9091 36.8182H12.2727C11.1878 36.8182 10.1472 36.3872 9.38002 35.62C8.61282 34.8528 8.18182 33.8122 8.18182 32.7273V4.09091C8.18182 3.00593 8.61282 1.96539 9.38002 1.1982C10.1472 0.431005 11.1878 0 12.2727 0ZM4.09091 8.18182V40.9091H40.9091V45H4.09091C3.00593 45 1.96539 44.569 1.1982 43.8018C0.431005 43.0346 0 41.9941 0 40.9091V8.18182H4.09091Z" fill="#38B98C"/>
</svg>
