<svg width="17" height="17" viewBox="0 0 17 17" fill="none" xmlns="http://www.w3.org/2000/svg">
<path d="M8.35873 0.311523C12.7299 0.311523 16.2731 3.8513 16.2731 8.2181C16.2731 12.5849 12.7299 16.1247 8.35873 16.1247C3.98761 16.1247 0.444336 12.5849 0.444336 8.2181C0.444336 3.8513 3.98761 0.311523 8.35873 0.311523ZM8.35873 1.89284C6.67951 1.89284 5.06906 2.55925 3.88167 3.74547C2.69428 4.93168 2.02722 6.54054 2.02722 8.2181C2.02722 9.89567 2.69428 11.5045 3.88167 12.6907C5.06906 13.877 6.67951 14.5434 8.35873 14.5434C10.038 14.5434 11.6484 13.877 12.8358 12.6907C14.0232 11.5045 14.6903 9.89567 14.6903 8.2181C14.6903 6.54054 14.0232 4.93168 12.8358 3.74547C11.6484 2.55925 10.038 1.89284 8.35873 1.89284ZM8.35082 6.63679C8.79244 6.63679 9.15017 6.99416 9.15017 7.43535V11.4867C9.30105 11.5737 9.41896 11.708 9.48562 11.8688C9.55229 12.0296 9.56398 12.2079 9.51889 12.376C9.4738 12.5441 9.37444 12.6927 9.23623 12.7987C9.09802 12.9046 8.92867 12.962 8.75445 12.962H8.36665C8.26168 12.962 8.15773 12.9414 8.06075 12.9013C7.96377 12.8611 7.87565 12.8023 7.80142 12.7282C7.72719 12.654 7.66831 12.566 7.62814 12.4691C7.58797 12.3722 7.56729 12.2684 7.56729 12.1635V8.2181C7.35739 8.2181 7.15609 8.1348 7.00766 7.98652C6.85924 7.83825 6.77585 7.63714 6.77585 7.42744C6.77585 7.21775 6.85924 7.01664 7.00766 6.86836C7.15609 6.72009 7.35739 6.63679 7.56729 6.63679H8.35082ZM8.35873 4.26481C8.56864 4.26481 8.76994 4.34811 8.91837 4.49639C9.06679 4.64467 9.15017 4.84577 9.15017 5.05547C9.15017 5.26517 9.06679 5.46627 8.91837 5.61455C8.76994 5.76283 8.56864 5.84613 8.35873 5.84613C8.14883 5.84613 7.94753 5.76283 7.7991 5.61455C7.65068 5.46627 7.56729 5.26517 7.56729 5.05547C7.56729 4.84577 7.65068 4.64467 7.7991 4.49639C7.94753 4.34811 8.14883 4.26481 8.35873 4.26481Z" fill="#3AA8AE"/>
</svg>
