<svg width="19" height="21" viewBox="0 0 19 21" fill="none" xmlns="http://www.w3.org/2000/svg">
<path d="M12.3778 12.8423C12.2494 12.8003 11.4376 12.4344 11.9449 10.8925H11.9376C13.2598 9.53075 14.2702 7.33948 14.2702 5.18213C14.2702 1.86494 12.0644 0.125977 9.50078 0.125977C6.93555 0.125977 4.74186 1.86413 4.74186 5.18213C4.74186 7.34836 5.74663 9.54851 7.0769 10.9071C7.59543 12.2672 6.6682 12.772 6.47436 12.8423C3.78959 13.8139 0.639587 15.5836 0.639587 17.3306V17.9857C0.639587 20.3659 5.25474 20.9071 9.52582 20.9071C13.8034 20.9071 18.3604 20.3659 18.3604 17.9857V17.3306C18.3604 15.5311 15.195 13.7752 12.3778 12.8423ZM7.92255 19.8765C7.92255 17.8177 9.23343 15.0384 9.23343 15.0384L8.3264 14.3268C8.3264 13.6467 9.49997 12.9352 9.49997 12.9352C9.49997 12.9352 10.6703 13.6581 10.6703 14.3268L9.76651 15.0384C9.76651 15.0384 11.0774 17.8072 11.0774 19.8991C11.0774 20.227 7.92255 20.1511 7.92255 19.8765Z" fill="#231F20"/>
</svg>
