<svg width="15" height="15" viewBox="0 0 15 15" fill="none" xmlns="http://www.w3.org/2000/svg">
<path d="M5.89625 0.271724C6.73432 0.300345 7.55376 0.526709 8.28769 0.932343C9.02162 1.33798 9.64925 1.91139 10.1194 2.60579C10.5895 3.30018 10.8887 4.09589 10.9928 4.92798C11.0968 5.76007 11.0026 6.60497 10.7179 7.39372L14.4151 11.336C14.5104 11.4404 14.5607 11.5781 14.5553 11.7193L14.4678 14.3741C14.4632 14.5149 14.4028 14.6481 14.2999 14.7444C14.1971 14.8407 14.0602 14.8922 13.9193 14.8876L11.2645 14.8001C11.1237 14.7955 10.9905 14.7351 10.8942 14.6322C10.7979 14.5294 10.7464 14.3925 10.7511 14.2517L10.7861 13.1897L9.72413 13.1547C9.58331 13.1501 9.4501 13.0897 9.3538 12.9869C9.25751 12.884 9.20602 12.7471 9.21066 12.6063L9.24564 11.5444L8.18372 11.5094C8.04243 11.5055 7.90834 11.4462 7.81044 11.3443L7.20091 10.6863C6.46349 10.8989 5.68877 10.9491 4.93008 10.8336C4.17139 10.7181 3.44673 10.4395 2.80597 10.0172C2.16522 9.59482 1.62357 9.03865 1.21832 8.38694C0.813067 7.73523 0.553824 7.00345 0.45843 6.24196C0.363037 5.48048 0.433759 4.70736 0.665729 3.97583C0.897699 3.24429 1.28541 2.57169 1.80218 2.00432C2.31895 1.43695 2.95251 0.988283 3.65927 0.689187C4.36602 0.39009 5.12919 0.247669 5.89625 0.271724ZM5.58139 9.82904C6.11987 9.84783 6.65701 9.76407 7.1642 9.58219C7.26293 9.54283 7.37128 9.53438 7.47491 9.55796C7.57855 9.58155 7.67257 9.63605 7.74454 9.71426L8.43773 10.4547L9.81159 10.4999C9.95241 10.5046 10.0856 10.565 10.1819 10.6678C10.2782 10.7707 10.3297 10.9076 10.3251 11.0484L10.2901 12.1103L11.352 12.1453C11.4928 12.1499 11.626 12.2103 11.7223 12.3132C11.8186 12.416 11.8701 12.5529 11.8655 12.6938L11.8305 13.7557L13.4234 13.8082L13.4861 11.9033L9.71212 7.87219C9.63882 7.79523 9.59062 7.69782 9.5739 7.59286C9.55719 7.4879 9.57276 7.38034 9.61853 7.28442C9.98285 6.45139 10.0704 5.52349 9.86837 4.63701C9.66633 3.75054 9.18532 2.95223 8.49601 2.35935C7.8067 1.76646 6.94543 1.41026 6.03871 1.34307C5.13199 1.27589 4.22762 1.50125 3.45845 1.98606C2.68928 2.47086 2.09586 3.18956 1.76536 4.03657C1.43487 4.88358 1.38471 5.81426 1.62227 6.69188C1.85982 7.56951 2.37256 8.34782 3.08517 8.91248C3.79778 9.47714 4.6727 9.79839 5.58139 9.82904ZM3.64121 4.18397C3.63602 4.34149 3.67766 4.49701 3.76085 4.63087C3.84405 4.76473 3.96508 4.87091 4.10862 4.93598C4.25217 5.00106 4.41179 5.02211 4.56729 4.99647C4.7228 4.97083 4.86721 4.89965 4.98227 4.79193C5.09732 4.68422 5.17785 4.5448 5.21367 4.39132C5.24949 4.23784 5.23899 4.07718 5.18351 3.92966C5.12802 3.78215 5.03004 3.6544 4.90195 3.56257C4.77385 3.47074 4.62141 3.41895 4.46389 3.41377C4.25266 3.40681 4.04732 3.48404 3.89303 3.62848C3.73875 3.77293 3.64817 3.97274 3.64121 4.18397Z" fill="#4B494B"/>
</svg>
