<svg width="22" height="16" viewBox="0 0 22 16" fill="none" xmlns="http://www.w3.org/2000/svg">
<path d="M1 6H21M5.44444 11H5.45556M9.88889 11H12.1111M1 4C1 3.20435 1.35119 2.44129 1.97631 1.87868C2.60143 1.31607 3.44928 1 4.33333 1H17.6667C18.5507 1 19.3986 1.31607 20.0237 1.87868C20.6488 2.44129 21 3.20435 21 4V12C21 12.7956 20.6488 13.5587 20.0237 14.1213C19.3986 14.6839 18.5507 15 17.6667 15H4.33333C3.44928 15 2.60143 14.6839 1.97631 14.1213C1.35119 13.5587 1 12.7956 1 12V4Z" stroke="#38B98C" stroke-width="2" stroke-linecap="round" stroke-linejoin="round"/>
</svg>
