<svg width="26" height="26" viewBox="0 0 26 26" fill="none" xmlns="http://www.w3.org/2000/svg">
<path d="M16.7188 11.9062L14.0938 9.28125L7.65625 15.7188C7.53125 15.8438 7.4375 15.9842 7.375 16.14C7.3125 16.2967 7.28125 16.4583 7.28125 16.625V18.0938C7.28125 18.2604 7.34375 18.4062 7.46875 18.5312C7.59375 18.6562 7.73958 18.7188 7.90625 18.7188H9.375C9.54167 18.7188 9.70333 18.6875 9.86 18.625C10.0158 18.5625 10.1562 18.4688 10.2812 18.3438L16.7188 11.9062ZM17.4688 11.1562L18.3438 10.2812C18.5938 10.0312 18.7188 9.73958 18.7188 9.40625C18.7188 9.07292 18.5938 8.78125 18.3438 8.53125L17.4688 7.65625C17.2188 7.40625 16.9271 7.28125 16.5938 7.28125C16.2604 7.28125 15.9688 7.40625 15.7188 7.65625L14.8438 8.53125L17.4688 11.1562ZM13 25.5C11.2708 25.5 9.64583 25.1717 8.125 24.515C6.60417 23.8592 5.28125 22.9688 4.15625 21.8438C3.03125 20.7188 2.14083 19.3958 1.485 17.875C0.828333 16.3542 0.5 14.7292 0.5 13C0.5 11.2708 0.828333 9.64583 1.485 8.125C2.14083 6.60417 3.03125 5.28125 4.15625 4.15625C5.28125 3.03125 6.60417 2.14042 8.125 1.48375C9.64583 0.827917 11.2708 0.5 13 0.5C14.7292 0.5 16.3542 0.827917 17.875 1.48375C19.3958 2.14042 20.7188 3.03125 21.8438 4.15625C22.9688 5.28125 23.8592 6.60417 24.515 8.125C25.1717 9.64583 25.5 11.2708 25.5 13C25.5 14.7292 25.1717 16.3542 24.515 17.875C23.8592 19.3958 22.9688 20.7188 21.8438 21.8438C20.7188 22.9688 19.3958 23.8592 17.875 24.515C16.3542 25.1717 14.7292 25.5 13 25.5ZM13 23C15.7917 23 18.1562 22.0312 20.0938 20.0938C22.0312 18.1562 23 15.7917 23 13C23 10.2083 22.0312 7.84375 20.0938 5.90625C18.1562 3.96875 15.7917 3 13 3C10.2083 3 7.84375 3.96875 5.90625 5.90625C3.96875 7.84375 3 10.2083 3 13C3 15.7917 3.96875 18.1562 5.90625 20.0938C7.84375 22.0312 10.2083 23 13 23Z" fill="white"/>
</svg>
