<svg width="22" height="16" viewBox="0 0 22 16" fill="none" xmlns="http://www.w3.org/2000/svg">
<path d="M7.6665 8C7.6665 8.92826 8.01769 9.8185 8.64281 10.4749C9.26794 11.1313 10.1158 11.5 10.9998 11.5C11.8839 11.5 12.7317 11.1313 13.3569 10.4749C13.982 9.8185 14.3332 8.92826 14.3332 8C14.3332 7.07174 13.982 6.1815 13.3569 5.52513C12.7317 4.86875 11.8839 4.5 10.9998 4.5C10.1158 4.5 9.26794 4.86875 8.64281 5.52513C8.01769 6.1815 7.6665 7.07174 7.6665 8Z" stroke="white" stroke-width="2" stroke-linecap="round" stroke-linejoin="round"/>
<path d="M17.6667 8H17.6778M4.33333 8H4.34444M1 3.33333C1 2.71449 1.23413 2.121 1.65087 1.68342C2.06762 1.24583 2.63285 1 3.22222 1H18.7778C19.3671 1 19.9324 1.24583 20.3491 1.68342C20.7659 2.121 21 2.71449 21 3.33333V12.6667C21 13.2855 20.7659 13.879 20.3491 14.3166C19.9324 14.7542 19.3671 15 18.7778 15H3.22222C2.63285 15 2.06762 14.7542 1.65087 14.3166C1.23413 13.879 1 13.2855 1 12.6667V3.33333Z" stroke="white" stroke-width="2" stroke-linecap="round" stroke-linejoin="round"/>
</svg>
