<svg width="22" height="22" viewBox="0 0 22 22" fill="none" xmlns="http://www.w3.org/2000/svg">
<path d="M15.4483 3.22233L18.7793 6.55564M11.007 14.3334L20.3171 4.98343C20.7544 4.54582 21.0001 3.9523 21.0001 3.33344C21.0001 2.71457 20.7544 2.12105 20.3171 1.68345C19.8798 1.24584 19.2867 1 18.6683 1C18.0498 1 17.4567 1.24584 17.0194 1.68345L7.67603 11.0001V14.3334H11.007Z" stroke="#38B98C" stroke-width="2" stroke-linecap="round" stroke-linejoin="round"/>
<path d="M7.67597 5.52246C5.72822 5.80017 3.95819 6.80673 2.72293 8.33909C1.48766 9.87146 0.87909 11.8156 1.01996 13.7793C1.16084 15.7431 2.04068 17.5803 3.482 18.9204C4.92333 20.2605 6.81888 21.0037 8.7863 21.0001C10.6554 21.0003 12.462 20.3265 13.875 19.1021C15.288 17.8777 16.2127 16.1848 16.4797 14.3335" stroke="#38B98C" stroke-width="2" stroke-linecap="round" stroke-linejoin="round"/>
</svg>
