<svg width="17" height="17" viewBox="0 0 17 17" fill="none" xmlns="http://www.w3.org/2000/svg">
<path d="M8.6665 12.6667C8.89317 12.6667 9.0833 12.5899 9.2369 12.4363C9.38997 12.2833 9.4665 12.0934 9.4665 11.8667V9.46675H11.8865C12.1132 9.46675 12.2998 9.38995 12.4465 9.23635C12.5932 9.08328 12.6665 8.89341 12.6665 8.66675C12.6665 8.44008 12.5897 8.24995 12.4361 8.09635C12.283 7.94328 12.0932 7.86675 11.8665 7.86675H9.4665V5.44675C9.4665 5.22008 9.38997 5.03341 9.2369 4.88675C9.0833 4.74008 8.89317 4.66675 8.6665 4.66675C8.43984 4.66675 8.24997 4.74328 8.0969 4.89635C7.9433 5.04995 7.8665 5.24008 7.8665 5.46675V7.86675H5.4465C5.21984 7.86675 5.03317 7.94328 4.8865 8.09635C4.73984 8.24995 4.6665 8.44008 4.6665 8.66675C4.6665 8.89341 4.74304 9.08328 4.8961 9.23635C5.0497 9.38995 5.23984 9.46675 5.4665 9.46675H7.8665V11.8867C7.8665 12.1134 7.9433 12.3001 8.0969 12.4467C8.24997 12.5934 8.43984 12.6667 8.6665 12.6667ZM8.6665 16.6667C7.55984 16.6667 6.51984 16.4566 5.5465 16.0363C4.57317 15.6166 3.7265 15.0467 3.0065 14.3267C2.2865 13.6067 1.71664 12.7601 1.2969 11.7867C0.876637 10.8134 0.666504 9.77341 0.666504 8.66675C0.666504 7.56008 0.876637 6.52008 1.2969 5.54675C1.71664 4.57342 2.2865 3.72675 3.0065 3.00675C3.7265 2.28675 4.57317 1.71661 5.5465 1.29635C6.51984 0.876615 7.55984 0.666748 8.6665 0.666748C9.77317 0.666748 10.8132 0.876615 11.7865 1.29635C12.7598 1.71661 13.6065 2.28675 14.3265 3.00675C15.0465 3.72675 15.6164 4.57342 16.0361 5.54675C16.4564 6.52008 16.6665 7.56008 16.6665 8.66675C16.6665 9.77341 16.4564 10.8134 16.0361 11.7867C15.6164 12.7601 15.0465 13.6067 14.3265 14.3267C13.6065 15.0467 12.7598 15.6166 11.7865 16.0363C10.8132 16.4566 9.77317 16.6667 8.6665 16.6667ZM8.6665 15.0667C10.4398 15.0667 11.95 14.4435 13.1969 13.1971C14.4433 11.9502 15.0665 10.4401 15.0665 8.66675C15.0665 6.89341 14.4433 5.38328 13.1969 4.13635C11.95 2.88995 10.4398 2.26675 8.6665 2.26675C6.89317 2.26675 5.3833 2.88995 4.1369 4.13635C2.88997 5.38328 2.2665 6.89341 2.2665 8.66675C2.2665 10.4401 2.88997 11.9502 4.1369 13.1971C5.3833 14.4435 6.89317 15.0667 8.6665 15.0667Z" fill="#3AA8AE"/>
</svg>
