<svg width="20" height="21" viewBox="0 0 20 21" fill="none" xmlns="http://www.w3.org/2000/svg">
<path d="M17.0711 3.07107C20.9764 6.97642 20.9764 13.3079 17.0711 17.2132C13.1657 21.1186 6.83428 21.1186 2.92893 17.2132C-0.976418 13.3079 -0.976418 6.97642 2.92893 3.07107C6.83428 -0.834283 13.1657 -0.834283 17.0711 3.07107ZM16.0104 4.13173C14.4163 2.53767 12.2543 1.64214 10 1.64214C7.74566 1.64214 5.58365 2.53767 3.98959 4.13173C2.39553 5.72579 1.5 7.8878 1.5 10.1421C1.5 12.3965 2.39553 14.5585 3.98959 16.1525C5.58365 17.7466 7.74566 18.6421 10 18.6421C12.2543 18.6421 14.4163 17.7466 16.0104 16.1525C17.6045 14.5585 18.5 12.3965 18.5 10.1421C18.5 7.8878 17.6045 5.72579 16.0104 4.13173ZM13.5355 6.6066C13.6762 6.74725 13.7552 6.93802 13.7552 7.13693C13.7552 7.33584 13.6762 7.52661 13.5355 7.66726L11.0607 10.1421L13.5355 12.617C13.6762 12.7577 13.7552 12.9484 13.7552 13.1473C13.7552 13.3463 13.6762 13.537 13.5355 13.6777C13.3949 13.8183 13.2041 13.8973 13.0052 13.8973C12.8063 13.8973 12.6155 13.8183 12.4749 13.6777L10 11.2028L7.52513 13.6777C7.38447 13.8183 7.19371 13.8973 6.9948 13.8973C6.79588 13.8973 6.60512 13.8183 6.46447 13.6777C6.32381 13.537 6.2448 13.3463 6.2448 13.1473C6.2448 12.9484 6.32381 12.7577 6.46447 12.617L8.93934 10.1421L6.46447 7.66726C6.32381 7.52661 6.2448 7.33584 6.2448 7.13693C6.2448 6.93802 6.32381 6.74725 6.46447 6.6066C6.60512 6.46595 6.79588 6.38693 6.9948 6.38693C7.19371 6.38693 7.38447 6.46595 7.52513 6.6066L10 9.08148L12.4749 6.6066C12.6155 6.46595 12.8063 6.38693 13.0052 6.38693C13.2041 6.38693 13.3949 6.46595 13.5355 6.6066Z" fill="#D55151"/>
</svg>
