<svg width="20" height="20" viewBox="0 0 20 20" fill="none" xmlns="http://www.w3.org/2000/svg">
<path d="M16.3104 0.668541C16.5067 0.461019 16.7426 0.294955 17.0042 0.180162C17.2657 0.0653694 17.5476 0.00417863 17.8332 0.000206635C18.1189 -0.00376536 18.4024 0.049562 18.667 0.157037C18.9317 0.264511 19.1721 0.423952 19.3741 0.625935C19.5761 0.827917 19.7355 1.06834 19.843 1.333C19.9504 1.59766 20.0038 1.88117 19.9998 2.16679C19.9958 2.45241 19.9346 2.73433 19.8198 2.9959C19.7051 3.25747 19.539 3.49336 19.3315 3.68965L13.07 9.95128C13.0617 9.95955 13.0551 9.96938 13.0506 9.9802C13.0461 9.99101 13.0438 10.0026 13.0438 10.0143C13.0438 10.026 13.0461 10.0376 13.0506 10.0485C13.0551 10.0593 13.0617 10.0691 13.07 10.0774L19.3315 16.339C19.5326 16.5368 19.6926 16.7725 19.8021 17.0325C19.9117 17.2924 19.9687 17.5715 19.9699 17.8536C19.9711 18.1357 19.9164 18.4153 19.809 18.6761C19.7016 18.937 19.5436 19.174 19.3442 19.3735C19.1447 19.573 18.9077 19.7311 18.6469 19.8385C18.3861 19.946 18.1065 20.0007 17.8244 19.9996C17.5423 19.9985 17.2633 19.9416 17.0033 19.832C16.7433 19.7225 16.5076 19.5626 16.3097 19.3615L10.0482 13.0999C10.0399 13.0916 10.0301 13.085 10.0193 13.0805C10.0085 13.0761 9.99685 13.0737 9.98514 13.0737C9.97343 13.0737 9.96183 13.0761 9.95101 13.0805C9.9402 13.085 9.93037 13.0916 9.9221 13.0999L3.66058 19.3615C3.46276 19.5627 3.22707 19.7226 2.96712 19.8322C2.70717 19.9418 2.42809 19.9988 2.14599 20C1.86389 20.0012 1.58434 19.9465 1.32348 19.8391C1.06262 19.7317 0.825603 19.5737 0.626102 19.3742C0.4266 19.1748 0.268564 18.9378 0.161107 18.677C0.0536509 18.4161 -0.00109862 18.1366 1.67035e-05 17.8545C0.00113203 17.5724 0.0580902 17.2933 0.167606 17.0333C0.277121 16.7733 0.437027 16.5376 0.638099 16.3397L6.89962 10.0781C6.90791 10.0698 6.91449 10.06 6.91898 10.0492C6.92347 10.0383 6.92578 10.0267 6.92578 10.015C6.92578 10.0033 6.92347 9.99173 6.91898 9.98091C6.91449 9.97009 6.90791 9.96026 6.89962 9.95199L0.638099 3.69036C0.24267 3.28853 0.0220411 2.74672 0.0242699 2.18295C0.0264988 1.61918 0.251405 1.07913 0.649999 0.680438C1.04859 0.281743 1.58858 0.0567056 2.15234 0.0543438C2.7161 0.051982 3.25795 0.272487 3.65987 0.667828L9.92139 6.92946C9.92966 6.93775 9.93948 6.94433 9.9503 6.94882C9.96112 6.95331 9.97272 6.95562 9.98443 6.95562C9.99614 6.95562 10.0077 6.95331 10.0186 6.94882C10.0294 6.94433 10.0392 6.93775 10.0475 6.92946L16.309 0.667828L16.3104 0.668541Z" fill="#38B98C"/>
</svg>
