<svg width="18" height="12" viewBox="0 0 18 12" fill="none" xmlns="http://www.w3.org/2000/svg">
<path d="M4.26273 7.10571C4.18593 7.02634 4.09389 6.96498 3.99273 6.92571C3.79353 6.83998 3.5701 6.83998 3.37091 6.92571C3.26938 6.96421 3.17717 7.02563 3.10082 7.10562C3.02446 7.1856 2.96584 7.2822 2.92909 7.38857C2.87609 7.51892 2.85475 7.661 2.867 7.80211C2.87924 7.94321 2.92468 8.07893 2.99926 8.19713C3.07383 8.31533 3.17521 8.41232 3.29432 8.47942C3.41344 8.54652 3.54657 8.58164 3.68182 8.58164C3.81706 8.58164 3.9502 8.54652 4.06931 8.47942C4.18843 8.41232 4.28981 8.31533 4.36438 8.19713C4.43895 8.07893 4.4844 7.94321 4.49664 7.80211C4.50888 7.661 4.48755 7.51892 4.43455 7.38857C4.3956 7.28336 4.33721 7.18723 4.26273 7.10571ZM10.2273 5.14286H11.0455C11.2625 5.14286 11.4706 5.05255 11.624 4.89181C11.7774 4.73106 11.8636 4.51304 11.8636 4.28571C11.8636 4.05839 11.7774 3.84037 11.624 3.67962C11.4706 3.51888 11.2625 3.42857 11.0455 3.42857H10.2273C10.0103 3.42857 9.80217 3.51888 9.64873 3.67962C9.49529 3.84037 9.40909 4.05839 9.40909 4.28571C9.40909 4.51304 9.49529 4.73106 9.64873 4.89181C9.80217 5.05255 10.0103 5.14286 10.2273 5.14286ZM6.95455 5.14286H7.77273C7.98972 5.14286 8.19783 5.05255 8.35127 4.89181C8.50471 4.73106 8.59091 4.51304 8.59091 4.28571C8.59091 4.05839 8.50471 3.84037 8.35127 3.67962C8.19783 3.51888 7.98972 3.42857 7.77273 3.42857H6.95455C6.73755 3.42857 6.52944 3.51888 6.376 3.67962C6.22256 3.84037 6.13636 4.05839 6.13636 4.28571C6.13636 4.51304 6.22256 4.73106 6.376 4.89181C6.52944 5.05255 6.73755 5.14286 6.95455 5.14286ZM4.5 3.42857H3.68182C3.46482 3.42857 3.25672 3.51888 3.10328 3.67962C2.94984 3.84037 2.86364 4.05839 2.86364 4.28571C2.86364 4.51304 2.94984 4.73106 3.10328 4.89181C3.25672 5.05255 3.46482 5.14286 3.68182 5.14286H4.5C4.717 5.14286 4.9251 5.05255 5.07854 4.89181C5.23198 4.73106 5.31818 4.51304 5.31818 4.28571C5.31818 4.05839 5.23198 3.84037 5.07854 3.67962C4.9251 3.51888 4.717 3.42857 4.5 3.42857ZM15.5455 0H2.45455C1.80356 0 1.17924 0.270918 0.71892 0.753154C0.258603 1.23539 0 1.88944 0 2.57143V9.42857C0 10.1106 0.258603 10.7646 0.71892 11.2468C1.17924 11.7291 1.80356 12 2.45455 12H15.5455C16.1964 12 16.8208 11.7291 17.2811 11.2468C17.7414 10.7646 18 10.1106 18 9.42857V2.57143C18 1.88944 17.7414 1.23539 17.2811 0.753154C16.8208 0.270918 16.1964 0 15.5455 0ZM16.3636 9.42857C16.3636 9.6559 16.2774 9.87392 16.124 10.0347C15.9706 10.1954 15.7625 10.2857 15.5455 10.2857H2.45455C2.23755 10.2857 2.02944 10.1954 1.876 10.0347C1.72256 9.87392 1.63636 9.6559 1.63636 9.42857V2.57143C1.63636 2.3441 1.72256 2.12608 1.876 1.96534C2.02944 1.80459 2.23755 1.71429 2.45455 1.71429H15.5455C15.7625 1.71429 15.9706 1.80459 16.124 1.96534C16.2774 2.12608 16.3636 2.3441 16.3636 2.57143V9.42857ZM11.4545 6.85714H6.54545C6.32846 6.85714 6.12035 6.94745 5.96691 7.10819C5.81347 7.26894 5.72727 7.48696 5.72727 7.71429C5.72727 7.94161 5.81347 8.15963 5.96691 8.32038C6.12035 8.48112 6.32846 8.57143 6.54545 8.57143H11.4545C11.6715 8.57143 11.8796 8.48112 12.0331 8.32038C12.1865 8.15963 12.2727 7.94161 12.2727 7.71429C12.2727 7.48696 12.1865 7.26894 12.0331 7.10819C11.8796 6.94745 11.6715 6.85714 11.4545 6.85714ZM14.3182 3.42857H13.5C13.283 3.42857 13.0749 3.51888 12.9215 3.67962C12.768 3.84037 12.6818 4.05839 12.6818 4.28571C12.6818 4.51304 12.768 4.73106 12.9215 4.89181C13.0749 5.05255 13.283 5.14286 13.5 5.14286H14.3182C14.5352 5.14286 14.7433 5.05255 14.8967 4.89181C15.0502 4.73106 15.1364 4.51304 15.1364 4.28571C15.1364 4.05839 15.0502 3.84037 14.8967 3.67962C14.7433 3.51888 14.5352 3.42857 14.3182 3.42857ZM14.8991 7.10571C14.8213 7.02768 14.7295 6.96651 14.6291 6.92571C14.4299 6.83998 14.2065 6.83998 14.0073 6.92571C13.9061 6.96498 13.8141 7.02634 13.7373 7.10571C13.6628 7.18723 13.6044 7.28336 13.5655 7.38857C13.5178 7.5059 13.4957 7.6329 13.5008 7.76031C13.5059 7.88771 13.5381 8.01233 13.595 8.12506C13.6519 8.23779 13.7321 8.33579 13.8297 8.41194C13.9273 8.48808 14.04 8.54044 14.1594 8.5652C14.2788 8.58995 14.402 8.58649 14.5199 8.55505C14.6379 8.52361 14.7477 8.465 14.8413 8.38347C14.9349 8.30195 15.01 8.19957 15.061 8.08381C15.1121 7.96804 15.1378 7.8418 15.1364 7.71429C15.1391 7.60185 15.1167 7.4903 15.0709 7.38857C15.032 7.28336 14.9736 7.18723 14.8991 7.10571Z" fill="#212529"/>
</svg>
