<svg width="22" height="16" viewBox="0 0 22 16" fill="none" xmlns="http://www.w3.org/2000/svg">
<path d="M9.88892 8C9.88892 8.39397 9.97513 8.78407 10.1427 9.14805C10.3102 9.51203 10.5557 9.84274 10.8652 10.1213C11.1748 10.3999 11.5422 10.6209 11.9466 10.7716C12.3511 10.9224 12.7845 11 13.2222 11C13.66 11 14.0934 10.9224 14.4979 10.7716C14.9023 10.6209 15.2697 10.3999 15.5793 10.1213C15.8888 9.84274 16.1343 9.51203 16.3018 9.14805C16.4694 8.78407 16.5556 8.39397 16.5556 8C16.5556 7.60603 16.4694 7.21593 16.3018 6.85195C16.1343 6.48797 15.8888 6.15726 15.5793 5.87868C15.2697 5.6001 14.9023 5.37913 14.4979 5.22836C14.0934 5.0776 13.66 5 13.2222 5C12.7845 5 12.3511 5.0776 11.9466 5.22836C11.5422 5.37913 11.1748 5.6001 10.8652 5.87868C10.5557 6.15726 10.3102 6.48797 10.1427 6.85195C9.97513 7.21593 9.88892 7.60603 9.88892 8Z" stroke="#38B98C" stroke-width="2" stroke-linecap="round" stroke-linejoin="round"/>
<path d="M11.0002 5.765C10.5207 5.3786 9.92719 5.12539 9.29128 5.03597C8.65537 4.94654 8.0043 5.02472 7.41668 5.26106C6.82906 5.4974 6.33003 5.8818 5.97986 6.36783C5.6297 6.85386 5.44336 7.42074 5.44336 8C5.44336 8.57927 5.6297 9.14614 5.97986 9.63217C6.33003 10.1182 6.82906 10.5026 7.41668 10.7389C8.0043 10.9753 8.65537 11.0535 9.29128 10.964C9.92719 10.8746 10.5207 10.6214 11.0002 10.235" stroke="#38B98C" stroke-width="2" stroke-linecap="round" stroke-linejoin="round"/>
<path d="M1 3C1 2.46957 1.23413 1.96086 1.65087 1.58579C2.06762 1.21071 2.63285 1 3.22222 1H18.7778C19.3671 1 19.9324 1.21071 20.3491 1.58579C20.7659 1.96086 21 2.46957 21 3V13C21 13.5304 20.7659 14.0391 20.3491 14.4142C19.9324 14.7893 19.3671 15 18.7778 15H3.22222C2.63285 15 2.06762 14.7893 1.65087 14.4142C1.23413 14.0391 1 13.5304 1 13V3Z" stroke="#38B98C" stroke-width="2" stroke-linecap="round" stroke-linejoin="round"/>
</svg>
