<svg width="20" height="20" viewBox="0 0 20 20" fill="none" xmlns="http://www.w3.org/2000/svg">
<path d="M13.3333 20C12.7222 20 12.1993 19.7826 11.7644 19.3478C11.3289 18.9122 11.1111 18.3889 11.1111 17.7778V2.22222C11.1111 1.61111 11.3289 1.08778 11.7644 0.652222C12.1993 0.217407 12.7222 0 13.3333 0H17.7778C18.3889 0 18.9122 0.217407 19.3478 0.652222C19.7826 1.08778 20 1.61111 20 2.22222V17.7778C20 18.3889 19.7826 18.9122 19.3478 19.3478C18.9122 19.7826 18.3889 20 17.7778 20H13.3333ZM2.22222 20C1.61111 20 1.08778 19.7826 0.652222 19.3478C0.217407 18.9122 0 18.3889 0 17.7778V2.22222C0 1.61111 0.217407 1.08778 0.652222 0.652222C1.08778 0.217407 1.61111 0 2.22222 0H6.66667C7.27778 0 7.80111 0.217407 8.23667 0.652222C8.67148 1.08778 8.88889 1.61111 8.88889 2.22222V17.7778C8.88889 18.3889 8.67148 18.9122 8.23667 19.3478C7.80111 19.7826 7.27778 20 6.66667 20H2.22222Z" fill="#38B98C"/>
</svg>
