<svg width="23" height="16" viewBox="0 0 23 16" fill="none" xmlns="http://www.w3.org/2000/svg">
<path d="M0 2.66667C0 1.95942 0.302901 1.28115 0.842068 0.781048C1.38124 0.280951 2.1125 0 2.875 0H20.125C20.8875 0 21.6188 0.280951 22.1579 0.781048C22.6971 1.28115 23 1.95942 23 2.66667V9.33333H0V2.66667ZM16.5312 4C16.3406 4 16.1578 4.07024 16.023 4.19526C15.8882 4.32029 15.8125 4.48986 15.8125 4.66667V6C15.8125 6.17681 15.8882 6.34638 16.023 6.4714C16.1578 6.59643 16.3406 6.66667 16.5312 6.66667H19.4062C19.5969 6.66667 19.7797 6.59643 19.9145 6.4714C20.0493 6.34638 20.125 6.17681 20.125 6V4.66667C20.125 4.48986 20.0493 4.32029 19.9145 4.19526C19.7797 4.07024 19.5969 4 19.4062 4H16.5312ZM0 12V13.3333C0 14.0406 0.302901 14.7189 0.842068 15.219C1.38124 15.719 2.1125 16 2.875 16H20.125C20.8875 16 21.6188 15.719 22.1579 15.219C22.6971 14.7189 23 14.0406 23 13.3333V12H0Z" fill="#38B98C"/>
</svg>
