<svg width="22" height="22" viewBox="0 0 22 22" fill="none" xmlns="http://www.w3.org/2000/svg">
<path d="M16.5556 16.5556H18.7778C19.3671 16.5556 19.9324 16.3214 20.3491 15.9047C20.7659 15.4879 21 14.9227 21 14.3333V9.88889C21 9.29952 20.7659 8.73429 20.3491 8.31754C19.9324 7.90079 19.3671 7.66667 18.7778 7.66667H3.22222C2.63285 7.66667 2.06762 7.90079 1.65087 8.31754C1.23413 8.73429 1 9.29952 1 9.88889V14.3333C1 14.9227 1.23413 15.4879 1.65087 15.9047C2.06762 16.3214 2.63285 16.5556 3.22222 16.5556H5.44444M16.5556 7.66667V3.22222C16.5556 2.63285 16.3214 2.06762 15.9047 1.65087C15.4879 1.23413 14.9227 1 14.3333 1H7.66667C7.0773 1 6.51207 1.23413 6.09532 1.65087C5.67857 2.06762 5.44444 2.63285 5.44444 3.22222V7.66667" stroke="#38B98C" stroke-width="2" stroke-linecap="round" stroke-linejoin="round"/>
<path d="M5.44434 14.3336C5.44434 13.7442 5.67846 13.1789 6.09521 12.7622C6.51196 12.3455 7.07719 12.1113 7.66656 12.1113H14.3332C14.9226 12.1113 15.4878 12.3455 15.9046 12.7622C16.3213 13.1789 16.5554 13.7442 16.5554 14.3336V18.778C16.5554 19.3674 16.3213 19.9326 15.9046 20.3493C15.4878 20.7661 14.9226 21.0002 14.3332 21.0002H7.66656C7.07719 21.0002 6.51196 20.7661 6.09521 20.3493C5.67846 19.9326 5.44434 19.3674 5.44434 18.778V14.3336Z" stroke="#38B98C" stroke-width="2" stroke-linecap="round" stroke-linejoin="round"/>
</svg>
