<svg width="20" height="14" viewBox="0 0 20 14" fill="none" xmlns="http://www.w3.org/2000/svg">
<path d="M9.99992 2.41667C11.5322 2.41157 13.0348 2.83899 14.335 3.64977C15.6352 4.46056 16.6802 5.6218 17.3499 7C15.9749 9.80833 13.1666 11.5833 9.99992 11.5833C6.83325 11.5833 4.02492 9.80833 2.64992 7C3.3196 5.6218 4.36461 4.46056 5.66482 3.64977C6.96502 2.83899 8.46764 2.41157 9.99992 2.41667ZM9.99992 0.75C5.83325 0.75 2.27492 3.34167 0.833252 7C2.27492 10.6583 5.83325 13.25 9.99992 13.25C14.1666 13.25 17.7249 10.6583 19.1666 7C17.7249 3.34167 14.1666 0.75 9.99992 0.75ZM9.99992 4.91667C10.5525 4.91667 11.0824 5.13616 11.4731 5.52686C11.8638 5.91756 12.0833 6.44747 12.0833 7C12.0833 7.55253 11.8638 8.08244 11.4731 8.47314C11.0824 8.86384 10.5525 9.08333 9.99992 9.08333C9.44738 9.08333 8.91748 8.86384 8.52678 8.47314C8.13608 8.08244 7.91659 7.55253 7.91659 7C7.91659 6.44747 8.13608 5.91756 8.52678 5.52686C8.91748 5.13616 9.44738 4.91667 9.99992 4.91667ZM9.99992 3.25C7.93325 3.25 6.24992 4.93333 6.24992 7C6.24992 9.06667 7.93325 10.75 9.99992 10.75C12.0666 10.75 13.7499 9.06667 13.7499 7C13.7499 4.93333 12.0666 3.25 9.99992 3.25Z" fill="#4B494B"/>
</svg>
