<svg width="27" height="28" viewBox="0 0 27 28" fill="none" xmlns="http://www.w3.org/2000/svg">
<path d="M10.7222 11.331C10.7222 11.1293 10.7619 10.9297 10.839 10.7433C10.9162 10.557 11.0292 10.3877 11.1717 10.2451C11.3142 10.1025 11.4834 9.98943 11.6696 9.91225C11.8558 9.83508 12.0554 9.79536 12.2569 9.79536H14.7431C14.9446 9.79536 15.1442 9.83508 15.3304 9.91225C15.5166 9.98943 15.6858 10.1025 15.8283 10.2451C15.9708 10.3877 16.0838 10.557 16.161 10.7433C16.2381 10.9297 16.2778 11.1293 16.2778 11.331V24.9364C16.2778 25.3437 16.1161 25.7343 15.8283 26.0222C15.5405 26.3102 15.1501 26.472 14.7431 26.472H12.2569C11.8499 26.472 11.4595 26.3102 11.1717 26.0222C10.8839 25.7343 10.7222 25.3437 10.7222 24.9364V11.331ZM20.4444 2.99267C20.4444 2.79101 20.4841 2.59132 20.5613 2.40501C20.6384 2.2187 20.7514 2.04941 20.894 1.90681C21.1818 1.61882 21.5721 1.45703 21.9792 1.45703H24.4653C24.6668 1.45703 24.8664 1.49675 25.0526 1.57393C25.2388 1.6511 25.408 1.76421 25.5505 1.90681C25.693 2.04941 25.806 2.2187 25.8832 2.40501C25.9603 2.59132 26 2.79101 26 2.99267V24.9364C26 25.3437 25.8383 25.7343 25.5505 26.0222C25.2627 26.3102 24.8723 26.472 24.4653 26.472H21.9792C21.5721 26.472 21.1818 26.3102 20.894 26.0222C20.6061 25.7343 20.4444 25.3437 20.4444 24.9364V2.99267ZM1 23.6926C1 24.4297 1.29266 25.1367 1.81359 25.6579C2.33453 26.1792 3.04107 26.472 3.77778 26.472C4.51449 26.472 5.22103 26.1792 5.74196 25.6579C6.2629 25.1367 6.55556 24.4297 6.55556 23.6926C6.55556 22.9554 6.2629 22.2485 5.74196 21.7272C5.22103 21.206 4.51449 20.9131 3.77778 20.9131C3.04107 20.9131 2.33453 21.206 1.81359 21.7272C1.29266 22.2485 1 22.9554 1 23.6926Z" stroke="#212529" stroke-width="2" stroke-linecap="round" stroke-linejoin="round"/>
</svg>
