<svg width="27" height="28" viewBox="0 0 27 28" fill="none" xmlns="http://www.w3.org/2000/svg">
<path d="M8.55654 26.2831H18.4435M8.55654 22.0157H18.4435M8.55654 13.481H2.64747C2.32161 13.4809 2.00309 13.3974 1.73217 13.2411C1.46126 13.0848 1.2501 12.8627 1.12541 12.6028C1.00072 12.3429 0.968091 12.057 1.03164 11.7811C1.0952 11.5052 1.25208 11.2518 1.48246 11.0528L12.335 1.68454C12.644 1.41787 13.0631 1.26807 13.5 1.26807C13.9369 1.26807 14.356 1.41787 14.665 1.68454L25.5175 11.0528C25.7479 11.2518 25.9048 11.5052 25.9684 11.7811C26.0319 12.057 25.9993 12.3429 25.8746 12.6028C25.7499 12.8627 25.5387 13.0848 25.2678 13.2411C24.9969 13.3974 24.6784 13.4809 24.3525 13.481H18.4435V17.7483H8.55654V13.481Z" stroke="#212529" stroke-width="2" stroke-linecap="round" stroke-linejoin="round"/>
</svg>
