<svg width="27" height="28" viewBox="0 0 27 28" fill="none" xmlns="http://www.w3.org/2000/svg">
<path d="M1 26.1273V23.3478C1 21.8735 1.58532 20.4596 2.62718 19.4171C3.66905 18.3746 5.08213 17.789 6.55556 17.789H12.1111C13.5845 17.789 14.9976 18.3746 16.0395 19.4171C17.0814 20.4596 17.6667 21.8735 17.6667 23.3478V26.1273M19.0556 1.29297C20.2506 1.59913 21.3098 2.29454 22.0662 3.26958C22.8226 4.24463 23.2331 5.44383 23.2331 6.67814C23.2331 7.91245 22.8226 9.11165 22.0662 10.0867C21.3098 11.0617 20.2506 11.7572 19.0556 12.0633M26 26.1273V23.3478C25.9929 22.1209 25.5804 20.9308 24.8268 19.963C24.0731 18.9952 23.0206 18.3041 21.8333 17.9974M3.77778 6.67119C3.77778 8.1455 4.36309 9.55942 5.40496 10.6019C6.44683 11.6444 7.85991 12.2301 9.33333 12.2301C10.8068 12.2301 12.2198 11.6444 13.2617 10.6019C14.3036 9.55942 14.8889 8.1455 14.8889 6.67119C14.8889 5.19688 14.3036 3.78296 13.2617 2.74046C12.2198 1.69797 10.8068 1.1123 9.33333 1.1123C7.85991 1.1123 6.44683 1.69797 5.40496 2.74046C4.36309 3.78296 3.77778 5.19688 3.77778 6.67119Z" stroke="#212529" stroke-width="2" stroke-linecap="round" stroke-linejoin="round"/>
</svg>
