<svg width="27" height="28" viewBox="0 0 27 28" fill="none" xmlns="http://www.w3.org/2000/svg">
<path d="M11.1736 3.36542C11.7653 0.925068 15.2347 0.925068 15.8264 3.36542C15.9152 3.73203 16.0892 4.07248 16.3343 4.35907C16.5794 4.64566 16.8887 4.87029 17.237 5.01467C17.5853 5.15905 17.9627 5.2191 18.3386 5.18994C18.7145 5.16078 19.0781 5.04323 19.4 4.84686C21.5431 3.54052 23.9972 5.99477 22.6917 8.1405C22.4957 8.46244 22.3784 8.8261 22.3493 9.20193C22.3203 9.57777 22.3802 9.95516 22.5243 10.3034C22.6685 10.6517 22.8927 10.9611 23.1788 11.2063C23.4649 11.4516 23.8048 11.6258 24.1708 11.7149C26.6097 12.3069 26.6097 15.7784 24.1708 16.3704C23.8044 16.4593 23.4642 16.6334 23.1778 16.8787C22.8914 17.1239 22.6669 17.4334 22.5226 17.7819C22.3783 18.1304 22.3183 18.5081 22.3474 18.8841C22.3765 19.2602 22.494 19.6241 22.6903 19.9462C23.9958 22.0905 21.5431 24.5462 19.3986 23.2398C19.0769 23.0437 18.7134 22.9264 18.3378 22.8973C17.9622 22.8682 17.585 22.9282 17.237 23.0724C16.8889 23.2166 16.5798 23.441 16.3346 23.7272C16.0895 24.0135 15.9154 24.3536 15.8264 24.7199C15.2347 27.1602 11.7653 27.1602 11.1736 24.7199C11.0848 24.3533 10.9108 24.0128 10.6657 23.7262C10.4206 23.4396 10.1113 23.215 9.76298 23.0706C9.4147 22.9263 9.03727 22.8662 8.66141 22.8954C8.28555 22.9245 7.92188 23.0421 7.6 23.2384C5.45694 24.5448 3.00278 22.0905 4.30833 19.9448C4.50431 19.6229 4.6216 19.2592 4.65067 18.8834C4.67975 18.5075 4.61978 18.1301 4.47566 17.7819C4.33153 17.4336 4.10731 17.1242 3.82121 16.879C3.53512 16.6337 3.19523 16.4595 2.82917 16.3704C0.390278 15.7784 0.390278 12.3069 2.82917 11.7149C3.19555 11.626 3.5358 11.4519 3.82222 11.2066C4.10864 10.9614 4.33313 10.6519 4.47742 10.3034C4.62172 9.9549 4.68174 9.57724 4.6526 9.20116C4.62345 8.82507 4.50598 8.46118 4.30972 8.13911C3.00417 5.99477 5.45694 3.53913 7.60139 4.84547C8.99028 5.69042 10.7903 4.94275 11.1736 3.36542Z" stroke="#212529" stroke-width="2" stroke-linecap="round" stroke-linejoin="round"/>
<path d="M9.33398 14.0427C9.33398 15.1484 9.77297 16.2089 10.5544 16.9907C11.3358 17.7726 12.3956 18.2119 13.5007 18.2119C14.6057 18.2119 15.6655 17.7726 16.4469 16.9907C17.2283 16.2089 17.6673 15.1484 17.6673 14.0427C17.6673 12.937 17.2283 11.8765 16.4469 11.0947C15.6655 10.3128 14.6057 9.87354 13.5007 9.87354C12.3956 9.87354 11.3358 10.3128 10.5544 11.0947C9.77297 11.8765 9.33398 12.937 9.33398 14.0427Z" stroke="#212529" stroke-width="2" stroke-linecap="round" stroke-linejoin="round"/>
</svg>
