<svg width="27" height="28" viewBox="0 0 27 28" fill="none" xmlns="http://www.w3.org/2000/svg">
<path d="M18.4435 1.229H8.55654M18.4435 5.49637H8.55654M18.4435 14.0311H24.3525C24.6784 14.0312 24.9969 14.1146 25.2678 14.2709C25.5387 14.4272 25.7499 14.6494 25.8746 14.9092C25.9993 15.1691 26.0319 15.4551 25.9684 15.731C25.9048 16.0069 25.7479 16.2603 25.5175 16.4592L14.665 25.8275C14.356 26.0942 13.9369 26.244 13.5 26.244C13.0631 26.244 12.644 26.0942 12.335 25.8275L1.48246 16.4592C1.25208 16.2603 1.0952 16.0069 1.03164 15.731C0.968091 15.4551 1.00072 15.1691 1.12541 14.9092C1.2501 14.6494 1.46126 14.4272 1.73217 14.2709C2.00309 14.1146 2.32161 14.0312 2.64747 14.0311H8.55654V9.76373H18.4435V14.0311Z" stroke="#212529" stroke-width="2" stroke-linecap="round" stroke-linejoin="round"/>
</svg>
