<svg width="27" height="23" viewBox="0 0 27 23" fill="none" xmlns="http://www.w3.org/2000/svg">
<path d="M1 8.56804H26M6.55556 15.7152H6.56944M12.1111 15.7152H14.8889M1 5.70918C1 4.57186 1.43899 3.48112 2.22039 2.67691C3.00179 1.8727 4.0616 1.4209 5.16667 1.4209H21.8333C22.9384 1.4209 23.9982 1.8727 24.7796 2.67691C25.561 3.48112 26 4.57186 26 5.70918V17.1446C26 18.2819 25.561 19.3727 24.7796 20.1769C23.9982 20.9811 22.9384 21.4329 21.8333 21.4329H5.16667C4.0616 21.4329 3.00179 20.9811 2.22039 20.1769C1.43899 19.3727 1 18.2819 1 17.1446V5.70918Z" stroke="#212529" stroke-width="2" stroke-linecap="round" stroke-linejoin="round"/>
</svg>
