<svg width="27" height="28" viewBox="0 0 27 28" fill="none" xmlns="http://www.w3.org/2000/svg">
<path d="M8.8125 20.9522V22.3419C8.8125 23.4476 9.30636 24.5081 10.1854 25.29C11.0645 26.0718 12.2568 26.5111 13.5 26.5111C14.7432 26.5111 15.9355 26.0718 16.8146 25.29C17.6936 24.5081 18.1875 23.4476 18.1875 22.3419V20.9522M10.375 4.27554C10.375 3.53838 10.7042 2.83142 11.2903 2.31017C11.8763 1.78893 12.6712 1.49609 13.5 1.49609C14.3288 1.49609 15.1237 1.78893 15.7097 2.31017C16.2958 2.83142 16.625 3.53838 16.625 4.27554C18.4194 5.03019 19.9491 6.20492 21.0501 7.67382C22.1511 9.14272 22.7819 10.8504 22.875 12.6139V16.783C22.9926 17.647 23.3366 18.4744 23.8794 19.1985C24.4222 19.9227 25.1485 20.5233 26 20.9522H1C1.85147 20.5233 2.57783 19.9227 3.12061 19.1985C3.66338 18.4744 4.00741 17.647 4.125 16.783V12.6139C4.21806 10.8504 4.84891 9.14272 5.94992 7.67382C7.05094 6.20492 8.58061 5.03019 10.375 4.27554Z" stroke="#212529" stroke-width="2" stroke-linecap="round" stroke-linejoin="round"/>
</svg>
