<svg width="27" height="28" viewBox="0 0 27 28" fill="none" xmlns="http://www.w3.org/2000/svg">
<path d="M10.0276 9.98997H14.1942M2.38867 9.98997H5.86089M12.1109 9.98997L16.2776 25.2769L21.8331 12.7694M21.8331 12.7694C22.079 12.0356 23.222 10.8738 23.222 9.2951C23.222 6.8214 22.1442 5.8208 20.6178 5.8208C19.3706 5.8208 19.0553 6.94925 19.0553 7.80671C19.0553 10.3499 21.8331 10.6668 21.8331 12.7694ZM4.47201 9.98997L9.33312 25.2769L13.4998 15.5489" stroke="#212529" stroke-width="2" stroke-linecap="round" stroke-linejoin="round"/>
<path d="M1 14.1593C1 15.8019 1.32332 17.4283 1.95151 18.9458C2.57969 20.4632 3.50043 21.8421 4.66116 23.0035C5.8219 24.1649 7.19989 25.0862 8.71646 25.7148C10.233 26.3433 11.8585 26.6668 13.5 26.6668C15.1415 26.6668 16.767 26.3433 18.2835 25.7148C19.8001 25.0862 21.1781 24.1649 22.3388 23.0035C23.4996 21.8421 24.4203 20.4632 25.0485 18.9458C25.6767 17.4283 26 15.8019 26 14.1593C26 12.5168 25.6767 10.8904 25.0485 9.37294C24.4203 7.85546 23.4996 6.47664 22.3388 5.31522C21.1781 4.15379 19.8001 3.23249 18.2835 2.60393C16.767 1.97537 15.1415 1.65186 13.5 1.65186C11.8585 1.65186 10.233 1.97537 8.71646 2.60393C7.19989 3.23249 5.8219 4.15379 4.66116 5.31522C3.50043 6.47664 2.57969 7.85546 1.95151 9.37294C1.32332 10.8904 1 12.5168 1 14.1593Z" stroke="#212529" stroke-width="2" stroke-linecap="round" stroke-linejoin="round"/>
</svg>
