<svg width="27" height="23" viewBox="0 0 27 23" fill="none" xmlns="http://www.w3.org/2000/svg">
<path d="M3.77734 18.4604C3.77734 19.2186 4.07 19.9458 4.59094 20.4819C5.11187 21.0181 5.81841 21.3193 6.55512 21.3193C7.29183 21.3193 7.99837 21.0181 8.51931 20.4819C9.04024 19.9458 9.3329 19.2186 9.3329 18.4604C9.3329 17.7022 9.04024 16.975 8.51931 16.4389C7.99837 15.9028 7.29183 15.6016 6.55512 15.6016C5.81841 15.6016 5.11187 15.9028 4.59094 16.4389C4.07 16.975 3.77734 17.7022 3.77734 18.4604ZM17.6662 18.4604C17.6662 19.2186 17.9589 19.9458 18.4798 20.4819C19.0008 21.0181 19.7073 21.3193 20.444 21.3193C21.1807 21.3193 21.8873 21.0181 22.4082 20.4819C22.9291 19.9458 23.2218 19.2186 23.2218 18.4604C23.2218 17.7022 22.9291 16.975 22.4082 16.4389C21.8873 15.9028 21.1807 15.6016 20.444 15.6016C19.7073 15.6016 19.0008 15.9028 18.4798 16.4389C17.9589 16.975 17.6662 17.7022 17.6662 18.4604Z" stroke="#212529" stroke-width="2" stroke-linecap="round" stroke-linejoin="round"/>
<path d="M3.77778 18.4603H1V2.73656C1 2.35745 1.14633 1.99387 1.4068 1.7258C1.66726 1.45773 2.02053 1.30713 2.38889 1.30713H14.8889V18.4603M9.33333 18.4603H17.6667M23.2222 18.4603H26V9.8837M26 9.8837H14.8889M26 9.8837L21.8333 2.73656H14.8889" stroke="#212529" stroke-width="2" stroke-linecap="round" stroke-linejoin="round"/>
</svg>
