<svg width="27" height="28" viewBox="0 0 27 28" fill="none" xmlns="http://www.w3.org/2000/svg">
<path d="M10.375 19.9126H19.75M26 4.27824V23.0395C26 23.8688 25.6708 24.6641 25.0847 25.2505C24.4987 25.8369 23.7038 26.1664 22.875 26.1664H7.25C6.4212 26.1664 5.62634 25.8369 5.04029 25.2505C4.45424 24.6641 4.125 23.8688 4.125 23.0395V4.27824C4.125 3.44894 4.45424 2.65361 5.04029 2.06721C5.62634 1.4808 6.4212 1.15137 7.25 1.15137H22.875C23.7038 1.15137 24.4987 1.4808 25.0847 2.06721C25.6708 2.65361 26 3.44894 26 4.27824Z" stroke="#212529" stroke-width="2" stroke-linecap="round" stroke-linejoin="round"/>
<path d="M1 7.40527H5.6875M1 13.659H5.6875M1 19.9128H5.6875M11.9375 12.0956C11.9375 12.9249 12.2667 13.7202 12.8528 14.3066C13.4388 14.893 14.2337 15.2225 15.0625 15.2225C15.8913 15.2225 16.6862 14.893 17.2722 14.3066C17.8583 13.7202 18.1875 12.9249 18.1875 12.0956C18.1875 11.2663 17.8583 10.471 17.2722 9.88455C16.6862 9.29815 15.8913 8.96871 15.0625 8.96871C14.2337 8.96871 13.4388 9.29815 12.8528 9.88455C12.2667 10.471 11.9375 11.2663 11.9375 12.0956Z" stroke="#212529" stroke-width="2" stroke-linecap="round" stroke-linejoin="round"/>
</svg>
