<svg width="25" height="25" viewBox="0 0 25 25" fill="none" xmlns="http://www.w3.org/2000/svg">
<path d="M18.8175 1.25795L18.9623 1.54695L20.0542 4.45086C20.14 4.67954 20.3205 4.85998 20.5491 4.94578L23.3528 5.99763C24.5832 6.45921 25.2443 7.77392 24.9165 9.01781L24.8376 9.26537L23.5332 12.15C23.4322 12.3724 23.4322 12.6276 23.5332 12.85L24.772 15.5762C25.3156 16.7726 24.8534 18.1698 23.742 18.8175L23.453 18.9623L20.5491 20.0542C20.3205 20.14 20.14 20.3205 20.0542 20.5491L19.0024 23.3528C18.5408 24.5832 17.2261 25.2443 15.9822 24.9165L15.7346 24.8376L12.85 23.5332C12.6276 23.4322 12.3724 23.4322 12.15 23.5332L9.42376 24.772C8.22739 25.3156 6.83025 24.8534 6.18251 23.742L6.03775 23.453L4.94578 20.5491C4.85998 20.3205 4.67954 20.14 4.45086 20.0542L1.64717 19.0024C0.41683 18.5408 -0.24432 17.2261 0.0835318 15.9822L0.162413 15.7346L1.46676 12.85C1.56779 12.6276 1.56779 12.3724 1.46676 12.15L0.228022 9.42376C-0.315573 8.22739 0.14656 6.83025 1.25795 6.18251L1.54695 6.03775L4.45086 4.94578C4.67954 4.85998 4.85998 4.67954 4.94578 4.45086L5.99763 1.64717C6.45921 0.41683 7.77392 -0.24432 9.01781 0.0835318L9.26537 0.162413L12.15 1.46676C12.3724 1.56779 12.6276 1.56779 12.85 1.46676L15.5762 0.228022C16.7726 -0.315573 18.1698 0.14656 18.8175 1.25795ZM7.5818 2.2415L6.52995 5.04519C6.27256 5.73123 5.73123 6.27256 5.04519 6.52995L2.2415 7.5818L2.0559 7.67898C1.72622 7.90745 1.59665 8.34573 1.76845 8.72384L3.00719 11.4501C3.3103 12.1172 3.3103 12.8828 3.00719 13.5499L1.75707 16.3024L1.70593 16.4761C1.63437 16.8708 1.85265 17.2723 2.2415 17.4182L5.04519 18.4701C5.73123 18.7274 6.27256 19.2688 6.52995 19.9548L7.5818 22.7585L7.67898 22.9441C7.90745 23.2738 8.34573 23.4034 8.72384 23.2315L11.4501 21.9928C12.1172 21.6897 12.8828 21.6897 13.5499 21.9928L16.3024 23.2429L16.4761 23.2941C16.8708 23.3656 17.2723 23.1473 17.4182 22.7585L18.4701 19.9548C18.7274 19.2688 19.2688 18.7274 19.9548 18.4701L22.7585 17.4182L22.9441 17.321C23.2738 17.0925 23.4034 16.6543 23.2315 16.2762L21.9928 13.5499C21.6897 12.8828 21.6897 12.1172 21.9928 11.4501L23.2429 8.69763L23.2941 8.52388C23.3656 8.12921 23.1473 7.72768 22.7585 7.5818L19.9548 6.52995C19.2688 6.27256 18.7274 5.73123 18.4701 5.04519L17.4182 2.2415L17.321 2.0559C17.0925 1.72622 16.6543 1.59665 16.2762 1.76845L13.5499 3.00719C12.8828 3.3103 12.1172 3.3103 11.4501 3.00719L8.72384 1.76845L8.67104 1.74658C8.23359 1.58246 7.74591 1.80405 7.5818 2.2415ZM10.5645 15.0509L16.599 8.15434C16.9067 7.80271 17.4412 7.76708 17.7928 8.07475C18.1005 8.34396 18.1662 8.78682 17.9717 9.12889L17.8724 9.26852L11.2424 16.8457C10.9604 17.1679 10.4914 17.2226 10.1467 16.9995L10.0075 16.8868L7.16608 14.0454C6.8357 13.715 6.8357 13.1793 7.16608 12.8489C7.45516 12.5599 7.9014 12.5237 8.22978 12.7405L8.36249 12.8489L10.5645 15.0509L16.599 8.15434L10.5645 15.0509Z" fill="#212529"/>
</svg>
