<svg width="27" height="28" viewBox="0 0 27 28" fill="none" xmlns="http://www.w3.org/2000/svg">
<path d="M4.125 13.8503C3.2962 13.8503 2.50134 13.5208 1.91529 12.9344C1.32924 12.348 1 11.5527 1 10.7234C1 9.8941 1.32924 9.09876 1.91529 8.51236C2.50134 7.92596 3.2962 7.59652 4.125 7.59652M4.125 13.8503C4.9538 13.8503 5.74866 13.5208 6.33471 12.9344C6.92076 12.348 7.25 11.5527 7.25 10.7234C7.25 9.8941 6.92076 9.09876 6.33471 8.51236C5.74866 7.92596 4.9538 7.59652 4.125 7.59652M4.125 13.8503V26.3578M4.125 7.59652V1.34277M13.5 23.2309C12.6712 23.2309 11.8763 22.9014 11.2903 22.315C10.7042 21.7286 10.375 20.9333 10.375 20.104C10.375 19.2747 10.7042 18.4794 11.2903 17.893C11.8763 17.3066 12.6712 16.9771 13.5 16.9771M13.5 23.2309C14.3288 23.2309 15.1237 22.9014 15.7097 22.315C16.2958 21.7286 16.625 20.9333 16.625 20.104C16.625 19.2747 16.2958 18.4794 15.7097 17.893C15.1237 17.3066 14.3288 16.9771 13.5 16.9771M13.5 23.2309V26.3578M13.5 16.9771V1.34277M22.875 9.15996C22.0462 9.15996 21.2513 8.83052 20.6653 8.24412C20.0792 7.65771 19.75 6.86238 19.75 6.03308C19.75 5.20379 20.0792 4.40845 20.6653 3.82205C21.2513 3.23565 22.0462 2.90621 22.875 2.90621M22.875 9.15996C23.7038 9.15996 24.4987 8.83052 25.0847 8.24412C25.6708 7.65771 26 6.86238 26 6.03308C26 5.20379 25.6708 4.40845 25.0847 3.82205C24.4987 3.23565 23.7038 2.90621 22.875 2.90621M22.875 9.15996V26.3578M22.875 2.90621V1.34277" stroke="#212529" stroke-width="2" stroke-linecap="round" stroke-linejoin="round"/>
</svg>
