<svg width="25" height="26" viewBox="0 0 25 26" fill="none" xmlns="http://www.w3.org/2000/svg">
<path d="M2.525 1.96813C2.35758 1.96813 2.19702 2.03467 2.07864 2.15313C1.96026 2.27158 1.89375 2.43224 1.89375 2.59976V8.91604C1.89375 9.26625 2.17625 9.54892 2.525 9.54892H8.8375C8.9205 9.54908 9.00272 9.53287 9.07945 9.5012C9.15618 9.46953 9.22592 9.42303 9.28467 9.36436C9.34342 9.30569 9.39003 9.23601 9.42183 9.15929C9.45363 9.08258 9.47 9.00034 9.47 8.91729V2.59976C9.47016 2.5167 9.45396 2.43444 9.42231 2.35766C9.39066 2.28088 9.34419 2.2111 9.28555 2.15232C9.22692 2.09353 9.15728 2.0469 9.08061 2.01508C9.00394 1.98326 8.92175 1.96688 8.83875 1.96688L2.525 1.96813ZM8.8375 13.7177C9.50717 13.7177 10.1494 13.9839 10.6229 14.4577C11.0965 14.9315 11.3625 15.5741 11.3625 16.2442V22.5605C11.3627 22.8924 11.2975 23.221 11.1707 23.5277C11.0438 23.8344 10.8579 24.113 10.6234 24.3478C10.3889 24.5825 10.1105 24.7687 9.80406 24.8958C9.49764 25.0228 9.16919 25.0882 8.8375 25.0882H2.525C1.85533 25.0882 1.21308 24.822 0.739555 24.3482C0.266026 23.8744 0 23.2318 0 22.5617V16.2454C0 15.5754 0.266026 14.9327 0.739555 14.4589C1.21308 13.9851 1.85533 13.7189 2.525 13.7189L8.8375 13.7177ZM22.475 13.7177C22.8067 13.7177 23.1351 13.7831 23.4416 13.9101C23.748 14.0372 24.0264 14.2234 24.2609 14.4581C24.4954 14.6928 24.6813 14.9715 24.8082 15.2782C24.935 15.5849 25.0002 15.9135 25 16.2454V22.5617C25 23.2318 24.734 23.8744 24.2604 24.3482C23.7869 24.822 23.1447 25.0882 22.475 25.0882H16.1625C15.4928 25.0882 14.8506 24.822 14.3771 24.3482C13.9035 23.8744 13.6375 23.2318 13.6375 22.5617V16.2454C13.6375 15.5754 13.9035 14.9327 14.3771 14.4589C14.8506 13.9851 15.4928 13.7189 16.1625 13.7189L22.475 13.7177ZM8.8375 15.6126H2.525C2.35758 15.6126 2.19702 15.6791 2.07864 15.7976C1.96026 15.916 1.89375 16.0767 1.89375 16.2442V22.5605C1.89375 22.9107 2.17625 23.1933 2.525 23.1933H8.8375C8.9205 23.1935 9.00272 23.1773 9.07945 23.1456C9.15618 23.114 9.22592 23.0675 9.28467 23.0088C9.34342 22.9501 9.39003 22.8804 9.42183 22.8037C9.45363 22.727 9.47 22.6448 9.47 22.5617V16.2454C9.47016 16.1624 9.45396 16.0801 9.42231 16.0033C9.39066 15.9266 9.34419 15.8568 9.28555 15.798C9.22692 15.7392 9.15728 15.6926 9.08061 15.6608C9.00394 15.6289 8.9205 15.6126 8.8375 15.6126ZM22.475 15.6126H16.1625C16.0795 15.6124 15.9973 15.6286 15.9205 15.6603C15.8438 15.6919 15.7741 15.7384 15.7153 15.7971C15.6566 15.8558 15.61 15.9255 15.5782 16.0022C15.5464 16.0789 15.53 16.1611 15.53 16.2442V22.5605C15.53 22.9107 15.8125 23.1933 16.1612 23.1933H22.4738C22.5568 23.1935 22.639 23.1773 22.7157 23.1456C22.7924 23.114 22.8622 23.0675 22.9209 23.0088C22.9797 22.9501 23.0263 22.8804 23.0581 22.8037C23.0899 22.727 23.1063 22.6448 23.1063 22.5617V16.2454C23.1064 16.1624 23.0902 16.0801 23.0586 16.0033C23.0269 15.9266 22.9804 15.8568 22.9218 15.798C22.8632 15.7392 22.7935 15.6926 22.7169 15.6608C22.6402 15.6289 22.558 15.6126 22.475 15.6126ZM8.8375 0.0732422C9.50717 0.0732422 10.1494 0.339428 10.6229 0.813241C11.0965 1.28705 11.3625 1.92968 11.3625 2.59976V8.91604C11.3625 9.58611 11.0965 10.2287 10.6229 10.7026C10.1494 11.1764 9.50717 11.4426 8.8375 11.4426H2.525C1.85533 11.4426 1.21308 11.1764 0.739555 10.7026C0.266026 10.2287 0 9.58611 0 8.91604V2.59976C0 1.92968 0.266026 1.28705 0.739555 0.813241C1.21308 0.339428 1.85533 0.0732422 2.525 0.0732422L8.8375 0.0732422ZM22.475 0.0732422C23.1447 0.0732422 23.7869 0.339428 24.2604 0.813241C24.734 1.28705 25 1.92968 25 2.59976V8.91604C25 9.58611 24.734 10.2287 24.2604 10.7026C23.7869 11.1764 23.1447 11.4426 22.475 11.4426H16.1625C15.4928 11.4426 14.8506 11.1764 14.3771 10.7026C13.9035 10.2287 13.6375 9.58611 13.6375 8.91604V2.59976C13.6375 1.92968 13.9035 1.28705 14.3771 0.813241C14.8506 0.339428 15.4928 0.0732422 16.1625 0.0732422L22.475 0.0732422ZM22.475 1.96813H16.1625C16.0795 1.96796 15.9973 1.98418 15.9205 2.01585C15.8438 2.04752 15.7741 2.09402 15.7153 2.15268C15.6566 2.21135 15.61 2.28104 15.5782 2.35775C15.5464 2.43447 15.53 2.5167 15.53 2.59976V8.91604C15.53 9.26625 15.8125 9.54892 16.1612 9.54892H22.4738C22.5568 9.54908 22.639 9.53287 22.7157 9.5012C22.7924 9.46953 22.8622 9.42303 22.9209 9.36436C22.9797 9.30569 23.0263 9.23601 23.0581 9.15929C23.0899 9.08258 23.1063 9.00034 23.1063 8.91729V2.59976C23.1064 2.5167 23.0902 2.43444 23.0586 2.35766C23.0269 2.28088 22.9804 2.2111 22.9218 2.15232C22.8632 2.09353 22.7935 2.0469 22.7169 2.01508C22.6402 1.98326 22.558 1.96813 22.475 1.96813Z" fill="#212529"/>
</svg>
